<?xml version="1.0" encoding="utf-8"?>
<!-- Generator: Adobe Illustrator 16.0.3, SVG Export Plug-In . SVG Version: 6.00 Build 0)  -->
<!DOCTYPE svg PUBLIC "-//W3C//DTD SVG 1.1//EN" "http://www.w3.org/Graphics/SVG/1.1/DTD/svg11.dtd">
<svg version="1.1" id="Ebene_1" xmlns="http://www.w3.org/2000/svg" xmlns:xlink="http://www.w3.org/1999/xlink" x="0px" y="0px"
	 width="387px" height="188px" viewBox="0 0 387 188" enable-background="new 0 0 387 188" xml:space="preserve">
<g>
	<defs>
		<rect id="SVGID_1_" width="387" height="188"/>
	</defs>
	<clipPath id="SVGID_2_">
		<use xlink:href="#SVGID_1_"  overflow="visible"/>
	</clipPath>
	<rect clip-path="url(#SVGID_2_)" fill="#FFFFFF" width="387" height="188"/>
</g>
<g>
	<defs>
		<rect id="SVGID_3_" width="387" height="188"/>
	</defs>
	<clipPath id="SVGID_4_">
		<use xlink:href="#SVGID_3_"  overflow="visible"/>
	</clipPath>
	<g clip-path="url(#SVGID_4_)">
		<defs>
			<rect id="SVGID_5_" width="387" height="188"/>
		</defs>
		<clipPath id="SVGID_6_">
			<use xlink:href="#SVGID_5_"  overflow="visible"/>
		</clipPath>
		<rect x="100.5" y="166.5" clip-path="url(#SVGID_6_)" fill="#FFFFFF" width="120" height="20"/>
		
			<rect x="100.5" y="166.5" clip-path="url(#SVGID_6_)" fill="none" stroke="#000000" stroke-miterlimit="10" width="120" height="20"/>
		<path clip-path="url(#SVGID_6_)" d="M189.178,171.393h1.178V180h-1.178V171.393z M185.572,172.576
			c-0.258-0.121-0.611-0.182-1.061-0.182h-2.32v2.982h2.32c0.523,0,0.948-0.111,1.274-0.334s0.489-0.615,0.489-1.178
			C186.275,173.232,186.041,172.803,185.572,172.576z M181.025,171.393h3.873c0.766,0,1.383,0.216,1.852,0.647
			s0.703,1.038,0.703,1.819c0,0.672-0.209,1.257-0.627,1.755s-1.061,0.747-1.928,0.747h-2.707V180h-1.166V171.393z M175.416,171.393
			h1.318l3.123,8.607h-1.277l-0.873-2.578h-3.404L173.371,180h-1.195L175.416,171.393z M177.332,176.473l-1.307-3.803l-1.389,3.803
			H177.332z M171.402,171.393h0.891l-2.73,8.607h-0.891L171.402,171.393z M164.072,178.031c0.031,0.352,0.119,0.621,0.264,0.809
			c0.266,0.34,0.727,0.51,1.383,0.51c0.391,0,0.734-0.085,1.031-0.255s0.445-0.433,0.445-0.788c0-0.27-0.119-0.475-0.357-0.615
			c-0.152-0.086-0.453-0.186-0.902-0.299l-0.838-0.211c-0.535-0.133-0.93-0.281-1.184-0.445c-0.453-0.285-0.68-0.68-0.68-1.184
			c0-0.594,0.214-1.074,0.642-1.441s1.003-0.551,1.726-0.551c0.945,0,1.627,0.277,2.045,0.832c0.262,0.352,0.389,0.73,0.381,1.137
			h-0.996c-0.02-0.238-0.104-0.455-0.252-0.65c-0.242-0.277-0.662-0.416-1.26-0.416c-0.398,0-0.7,0.076-0.905,0.229
			s-0.308,0.354-0.308,0.604c0,0.273,0.135,0.492,0.404,0.656c0.156,0.098,0.387,0.184,0.691,0.258l0.697,0.17
			c0.758,0.184,1.266,0.361,1.523,0.533c0.41,0.27,0.615,0.693,0.615,1.271c0,0.559-0.212,1.041-0.636,1.447
			s-1.069,0.609-1.937,0.609c-0.934,0-1.595-0.212-1.983-0.636s-0.597-0.948-0.624-1.573H164.072z M160.137,176.197
			c0.242-0.031,0.404-0.133,0.486-0.305c0.047-0.094,0.07-0.229,0.07-0.404c0-0.359-0.128-0.62-0.384-0.782
			s-0.622-0.243-1.099-0.243c-0.551,0-0.941,0.148-1.172,0.445c-0.129,0.164-0.213,0.408-0.252,0.732h-0.984
			c0.02-0.773,0.271-1.312,0.753-1.614s1.042-0.454,1.679-0.454c0.738,0,1.338,0.141,1.799,0.422
			c0.457,0.281,0.686,0.719,0.686,1.313v3.615c0,0.109,0.022,0.197,0.067,0.264s0.14,0.1,0.284,0.1c0.047,0,0.1-0.003,0.158-0.009
			s0.121-0.015,0.188-0.026v0.779c-0.164,0.047-0.289,0.076-0.375,0.088s-0.203,0.018-0.352,0.018c-0.363,0-0.627-0.129-0.791-0.387
			c-0.086-0.137-0.146-0.33-0.182-0.58c-0.215,0.281-0.523,0.525-0.926,0.732s-0.846,0.311-1.33,0.311
			c-0.582,0-1.058-0.177-1.427-0.53s-0.554-0.796-0.554-1.327c0-0.582,0.182-1.033,0.545-1.354s0.84-0.518,1.43-0.592
			L160.137,176.197z M157.916,179.051c0.223,0.176,0.486,0.264,0.791,0.264c0.371,0,0.73-0.086,1.078-0.258
			c0.586-0.285,0.879-0.752,0.879-1.4v-0.85c-0.129,0.082-0.295,0.15-0.498,0.205s-0.402,0.094-0.598,0.117l-0.639,0.082
			c-0.383,0.051-0.67,0.131-0.861,0.24c-0.324,0.184-0.486,0.477-0.486,0.879C157.582,178.635,157.693,178.875,157.916,179.051z
			 M151.289,173.725l1.676,5.109l1.752-5.109h1.154L153.504,180h-1.125l-2.314-6.275H151.289z M144.102,173.725h1.002v0.891
			c0.297-0.367,0.611-0.631,0.943-0.791s0.701-0.24,1.107-0.24c0.891,0,1.492,0.311,1.805,0.932c0.172,0.34,0.258,0.826,0.258,1.459
			V180h-1.072v-3.955c0-0.383-0.057-0.691-0.17-0.926c-0.188-0.391-0.527-0.586-1.02-0.586c-0.25,0-0.455,0.025-0.615,0.076
			c-0.289,0.086-0.543,0.258-0.762,0.516c-0.176,0.207-0.29,0.421-0.343,0.642s-0.079,0.536-0.079,0.946V180h-1.055V173.725z
			 M140.793,176.197c0.242-0.031,0.404-0.133,0.486-0.305c0.047-0.094,0.07-0.229,0.07-0.404c0-0.359-0.128-0.62-0.384-0.782
			s-0.622-0.243-1.099-0.243c-0.551,0-0.941,0.148-1.172,0.445c-0.129,0.164-0.213,0.408-0.252,0.732h-0.984
			c0.02-0.773,0.271-1.312,0.753-1.614s1.042-0.454,1.679-0.454c0.738,0,1.338,0.141,1.799,0.422
			c0.457,0.281,0.686,0.719,0.686,1.313v3.615c0,0.109,0.022,0.197,0.067,0.264s0.14,0.1,0.284,0.1c0.047,0,0.1-0.003,0.158-0.009
			s0.121-0.015,0.188-0.026v0.779c-0.164,0.047-0.289,0.076-0.375,0.088s-0.203,0.018-0.352,0.018c-0.363,0-0.627-0.129-0.791-0.387
			c-0.086-0.137-0.146-0.33-0.182-0.58c-0.215,0.281-0.523,0.525-0.926,0.732s-0.846,0.311-1.33,0.311
			c-0.582,0-1.058-0.177-1.427-0.53s-0.554-0.796-0.554-1.327c0-0.582,0.182-1.033,0.545-1.354s0.84-0.518,1.43-0.592
			L140.793,176.197z M138.572,179.051c0.223,0.176,0.486,0.264,0.791,0.264c0.371,0,0.73-0.086,1.078-0.258
			c0.586-0.285,0.879-0.752,0.879-1.4v-0.85c-0.129,0.082-0.295,0.15-0.498,0.205s-0.402,0.094-0.598,0.117l-0.639,0.082
			c-0.383,0.051-0.67,0.131-0.861,0.24c-0.324,0.184-0.486,0.477-0.486,0.879C138.238,178.635,138.35,178.875,138.572,179.051z
			 M135.078,172.02c0.602,0.574,0.936,1.227,1.002,1.957h-1.137c-0.129-0.555-0.386-0.994-0.771-1.318s-0.925-0.486-1.62-0.486
			c-0.848,0-1.532,0.298-2.054,0.894s-0.782,1.509-0.782,2.739c0,1.008,0.235,1.825,0.706,2.452s1.173,0.94,2.106,0.94
			c0.859,0,1.514-0.33,1.963-0.99c0.238-0.348,0.416-0.805,0.533-1.371h1.137c-0.102,0.906-0.438,1.666-1.008,2.279
			c-0.684,0.738-1.605,1.107-2.766,1.107c-1,0-1.84-0.303-2.52-0.908c-0.895-0.801-1.342-2.037-1.342-3.709
			c0-1.27,0.336-2.311,1.008-3.123c0.727-0.883,1.729-1.324,3.006-1.324C133.631,171.158,134.477,171.445,135.078,172.02z"/>
		<rect x="100.5" y="126.5" clip-path="url(#SVGID_6_)" fill="#FFFFFF" width="120" height="20"/>
		
			<rect x="100.5" y="126.5" clip-path="url(#SVGID_6_)" fill="none" stroke="#000000" stroke-miterlimit="10" width="120" height="20"/>
		<path clip-path="url(#SVGID_6_)" d="M200.518,133.918c0.188,0.117,0.4,0.322,0.639,0.615v-3.17h1.014V140h-0.949v-0.873
			c-0.246,0.387-0.537,0.666-0.873,0.838s-0.721,0.258-1.154,0.258c-0.699,0-1.305-0.294-1.816-0.882s-0.768-1.37-0.768-2.347
			c0-0.914,0.233-1.706,0.7-2.376s1.134-1.005,2.001-1.005C199.791,133.613,200.193,133.715,200.518,133.918z M198.15,138.623
			c0.285,0.453,0.742,0.68,1.371,0.68c0.488,0,0.89-0.21,1.204-0.63s0.472-1.022,0.472-1.808c0-0.793-0.162-1.38-0.486-1.761
			s-0.725-0.571-1.201-0.571c-0.531,0-0.962,0.203-1.292,0.609s-0.495,1.004-0.495,1.793
			C197.723,137.607,197.865,138.17,198.15,138.623z M194.678,136.361c-0.043-0.457-0.143-0.822-0.299-1.096
			c-0.289-0.508-0.771-0.762-1.447-0.762c-0.484,0-0.891,0.175-1.219,0.524s-0.502,0.794-0.521,1.333H194.678z M194.291,133.897
			c0.418,0.209,0.736,0.479,0.955,0.812c0.211,0.316,0.352,0.686,0.422,1.107c0.063,0.289,0.094,0.75,0.094,1.383h-4.6
			c0.02,0.637,0.17,1.147,0.451,1.532s0.717,0.577,1.307,0.577c0.551,0,0.99-0.182,1.318-0.545c0.188-0.211,0.32-0.455,0.398-0.732
			h1.037c-0.027,0.23-0.118,0.487-0.272,0.771s-0.327,0.515-0.519,0.694c-0.32,0.313-0.717,0.523-1.189,0.633
			c-0.254,0.063-0.541,0.094-0.861,0.094c-0.781,0-1.443-0.284-1.986-0.853s-0.814-1.364-0.814-2.388
			c0-1.008,0.273-1.826,0.82-2.455s1.262-0.943,2.145-0.943C193.441,133.584,193.873,133.688,194.291,133.897z M187.266,131.973
			h1.066v1.752h1.002v0.861h-1.002v4.096c0,0.219,0.074,0.365,0.223,0.439c0.082,0.043,0.219,0.064,0.41,0.064
			c0.051,0,0.105-0.001,0.164-0.003s0.127-0.007,0.205-0.015V140c-0.121,0.035-0.247,0.061-0.378,0.076s-0.272,0.023-0.425,0.023
			c-0.492,0-0.826-0.126-1.002-0.378s-0.264-0.579-0.264-0.981v-4.154h-0.85v-0.861h0.85V131.973z M183.746,136.197
			c0.242-0.031,0.404-0.133,0.486-0.305c0.047-0.094,0.07-0.229,0.07-0.404c0-0.359-0.128-0.62-0.384-0.782
			s-0.622-0.243-1.099-0.243c-0.551,0-0.941,0.148-1.172,0.445c-0.129,0.164-0.213,0.408-0.252,0.732h-0.984
			c0.02-0.773,0.271-1.312,0.753-1.614s1.042-0.454,1.679-0.454c0.738,0,1.338,0.141,1.799,0.422
			c0.457,0.281,0.686,0.719,0.686,1.313v3.615c0,0.109,0.022,0.197,0.067,0.264s0.14,0.1,0.284,0.1c0.047,0,0.1-0.003,0.158-0.009
			s0.121-0.015,0.188-0.026v0.779c-0.164,0.047-0.289,0.076-0.375,0.088s-0.203,0.018-0.352,0.018c-0.363,0-0.627-0.129-0.791-0.387
			c-0.086-0.137-0.146-0.33-0.182-0.58c-0.215,0.281-0.523,0.525-0.926,0.732s-0.846,0.311-1.33,0.311
			c-0.582,0-1.058-0.177-1.427-0.53s-0.554-0.796-0.554-1.327c0-0.582,0.182-1.033,0.545-1.354s0.84-0.518,1.43-0.592
			L183.746,136.197z M181.525,139.051c0.223,0.176,0.486,0.264,0.791,0.264c0.371,0,0.73-0.086,1.078-0.258
			c0.586-0.285,0.879-0.752,0.879-1.4v-0.85c-0.129,0.082-0.295,0.15-0.498,0.205s-0.402,0.094-0.598,0.117l-0.639,0.082
			c-0.383,0.051-0.67,0.131-0.861,0.24c-0.324,0.184-0.486,0.477-0.486,0.879C181.191,138.635,181.303,138.875,181.525,139.051z
			 M176.428,133.725h1.002v1.084c0.082-0.211,0.283-0.468,0.604-0.771s0.689-0.454,1.107-0.454c0.02,0,0.053,0.002,0.1,0.006
			s0.127,0.012,0.24,0.023v1.113c-0.063-0.012-0.12-0.02-0.173-0.023s-0.11-0.006-0.173-0.006c-0.531,0-0.939,0.171-1.225,0.513
			s-0.428,0.735-0.428,1.181V140h-1.055V133.725z M173.359,135.107c-0.32-0.375-0.729-0.563-1.225-0.563
			c-0.742,0-1.25,0.348-1.523,1.043c-0.145,0.371-0.217,0.857-0.217,1.459c0,0.707,0.144,1.245,0.431,1.614s0.673,0.554,1.157,0.554
			c0.758,0,1.291-0.342,1.6-1.025c0.172-0.387,0.258-0.838,0.258-1.354C173.84,136.059,173.68,135.482,173.359,135.107z
			 M173.23,133.977c0.199,0.137,0.402,0.336,0.609,0.598v-0.791h0.973v5.707c0,0.797-0.117,1.426-0.352,1.887
			c-0.438,0.852-1.264,1.277-2.479,1.277c-0.676,0-1.244-0.151-1.705-0.454s-0.719-0.776-0.773-1.421h1.072
			c0.051,0.281,0.152,0.498,0.305,0.65c0.238,0.234,0.613,0.352,1.125,0.352c0.809,0,1.338-0.285,1.588-0.855
			c0.148-0.336,0.217-0.936,0.205-1.799c-0.211,0.32-0.465,0.559-0.762,0.715s-0.689,0.234-1.178,0.234
			c-0.68,0-1.274-0.241-1.784-0.724s-0.765-1.28-0.765-2.394c0-1.051,0.257-1.871,0.771-2.461s1.134-0.885,1.86-0.885
			C172.434,133.613,172.863,133.734,173.23,133.977z M167.35,136.361c-0.043-0.457-0.143-0.822-0.299-1.096
			c-0.289-0.508-0.771-0.762-1.447-0.762c-0.484,0-0.891,0.175-1.219,0.524s-0.502,0.794-0.521,1.333H167.35z M166.963,133.897
			c0.418,0.209,0.736,0.479,0.955,0.812c0.211,0.316,0.352,0.686,0.422,1.107c0.063,0.289,0.094,0.75,0.094,1.383h-4.6
			c0.02,0.637,0.17,1.147,0.451,1.532s0.717,0.577,1.307,0.577c0.551,0,0.99-0.182,1.318-0.545c0.188-0.211,0.32-0.455,0.398-0.732
			h1.037c-0.027,0.23-0.118,0.487-0.272,0.771s-0.327,0.515-0.519,0.694c-0.32,0.313-0.717,0.523-1.189,0.633
			c-0.254,0.063-0.541,0.094-0.861,0.094c-0.781,0-1.443-0.284-1.986-0.853s-0.814-1.364-0.814-2.388
			c0-1.008,0.273-1.826,0.82-2.455s1.262-0.943,2.145-0.943C166.113,133.584,166.545,133.688,166.963,133.897z M159.938,131.973
			h1.066v1.752h1.002v0.861h-1.002v4.096c0,0.219,0.074,0.365,0.223,0.439c0.082,0.043,0.219,0.064,0.41,0.064
			c0.051,0,0.105-0.001,0.164-0.003s0.127-0.007,0.205-0.015V140c-0.121,0.035-0.247,0.061-0.378,0.076s-0.272,0.023-0.425,0.023
			c-0.492,0-0.826-0.126-1.002-0.378s-0.264-0.579-0.264-0.981v-4.154h-0.85v-0.861h0.85V131.973z M153.055,133.725h1.002v0.891
			c0.297-0.367,0.611-0.631,0.943-0.791s0.701-0.24,1.107-0.24c0.891,0,1.492,0.311,1.805,0.932c0.172,0.34,0.258,0.826,0.258,1.459
			V140h-1.072v-3.955c0-0.383-0.057-0.691-0.17-0.926c-0.188-0.391-0.527-0.586-1.02-0.586c-0.25,0-0.455,0.025-0.615,0.076
			c-0.289,0.086-0.543,0.258-0.762,0.516c-0.176,0.207-0.29,0.421-0.343,0.642s-0.079,0.536-0.079,0.946V140h-1.055V133.725z
			 M150.131,131.393h1.178V140h-1.178V131.393z M145.467,136.115h2.941v1.084h-2.941V136.115z M135.869,131.393h1.67l2.473,7.277
			l2.455-7.277h1.652V140h-1.107v-5.08c0-0.176,0.004-0.467,0.012-0.873s0.012-0.842,0.012-1.307L140.58,140h-1.154l-2.473-7.26
			v0.264c0,0.211,0.005,0.532,0.015,0.964s0.015,0.749,0.015,0.952V140h-1.113V131.393z M132.632,138.104
			c0.459-0.736,0.688-1.583,0.688-2.54c0-1.012-0.265-1.826-0.794-2.443s-1.253-0.926-2.171-0.926c-0.891,0-1.617,0.306-2.18,0.917
			s-0.844,1.513-0.844,2.704c0,0.953,0.241,1.757,0.724,2.411s1.265,0.981,2.347,0.981
			C131.43,139.209,132.173,138.841,132.632,138.104z M133.66,132.623c0.57,0.762,0.855,1.736,0.855,2.924
			c0,1.285-0.326,2.354-0.979,3.205c-0.766,1-1.857,1.5-3.275,1.5c-1.324,0-2.365-0.438-3.123-1.313
			c-0.676-0.844-1.014-1.91-1.014-3.199c0-1.164,0.289-2.16,0.867-2.988c0.742-1.063,1.84-1.594,3.293-1.594
			C131.805,131.158,132.93,131.646,133.66,132.623z M117.967,131.393h3.486c1.184,0,2.102,0.42,2.754,1.26
			c0.582,0.758,0.873,1.729,0.873,2.912c0,0.914-0.172,1.74-0.516,2.479c-0.605,1.305-1.646,1.957-3.123,1.957h-3.475V131.393z
			 M121.219,139.004c0.395,0,0.719-0.041,0.973-0.123c0.453-0.152,0.824-0.445,1.113-0.879c0.23-0.348,0.396-0.793,0.498-1.336
			c0.059-0.324,0.088-0.625,0.088-0.902c0-1.066-0.212-1.895-0.636-2.484s-1.106-0.885-2.048-0.885h-2.068v6.609H121.219z"/>
		<rect x="100.5" y="86.5" clip-path="url(#SVGID_6_)" fill="#FFFFFF" width="120" height="20"/>
		
			<rect x="100.5" y="86.5" clip-path="url(#SVGID_6_)" fill="none" stroke="#000000" stroke-miterlimit="10" width="120" height="20"/>
		<path clip-path="url(#SVGID_6_)" d="M199.666,98.031c0.031,0.352,0.119,0.621,0.264,0.809c0.266,0.34,0.727,0.51,1.383,0.51
			c0.391,0,0.734-0.085,1.031-0.255s0.445-0.433,0.445-0.788c0-0.27-0.119-0.475-0.357-0.615c-0.152-0.086-0.453-0.186-0.902-0.299
			l-0.838-0.211c-0.535-0.133-0.93-0.281-1.184-0.445c-0.453-0.285-0.68-0.68-0.68-1.184c0-0.594,0.214-1.074,0.642-1.441
			s1.003-0.551,1.726-0.551c0.945,0,1.627,0.277,2.045,0.832c0.262,0.352,0.389,0.73,0.381,1.137h-0.996
			c-0.02-0.238-0.104-0.455-0.252-0.65c-0.242-0.277-0.662-0.416-1.26-0.416c-0.398,0-0.7,0.076-0.905,0.229
			s-0.308,0.354-0.308,0.604c0,0.273,0.135,0.492,0.404,0.656c0.156,0.098,0.387,0.184,0.691,0.258l0.697,0.17
			c0.758,0.184,1.266,0.361,1.523,0.533c0.41,0.27,0.615,0.693,0.615,1.271c0,0.559-0.212,1.041-0.636,1.447
			s-1.069,0.609-1.937,0.609c-0.934,0-1.595-0.212-1.983-0.636s-0.597-0.948-0.624-1.573H199.666z M189.055,93.725h1.043v0.891
			c0.25-0.309,0.477-0.533,0.68-0.674c0.348-0.238,0.742-0.357,1.184-0.357c0.5,0,0.902,0.123,1.207,0.369
			c0.172,0.141,0.328,0.348,0.469,0.621c0.234-0.336,0.51-0.585,0.826-0.747s0.672-0.243,1.066-0.243
			c0.844,0,1.418,0.305,1.723,0.914c0.164,0.328,0.246,0.77,0.246,1.324V100h-1.096v-4.359c0-0.418-0.104-0.705-0.313-0.861
			s-0.464-0.234-0.765-0.234c-0.414,0-0.771,0.139-1.069,0.416s-0.448,0.74-0.448,1.389V100h-1.072v-4.096
			c0-0.426-0.051-0.736-0.152-0.932c-0.16-0.293-0.459-0.439-0.896-0.439c-0.398,0-0.761,0.154-1.087,0.463
			s-0.489,0.867-0.489,1.676V100h-1.055V93.725z M185.1,93.725h1.002v1.084c0.082-0.211,0.283-0.468,0.604-0.771
			s0.689-0.454,1.107-0.454c0.02,0,0.053,0.002,0.1,0.006s0.127,0.012,0.24,0.023v1.113c-0.063-0.012-0.12-0.02-0.173-0.023
			s-0.11-0.006-0.173-0.006c-0.531,0-0.939,0.171-1.225,0.513s-0.428,0.735-0.428,1.181V100H185.1V93.725z M182.98,94.352
			c0.559,0.539,0.838,1.332,0.838,2.379c0,1.012-0.246,1.848-0.738,2.508s-1.256,0.99-2.291,0.99c-0.863,0-1.549-0.292-2.057-0.876
			s-0.762-1.368-0.762-2.353c0-1.055,0.268-1.895,0.803-2.52s1.254-0.938,2.156-0.938C181.738,93.543,182.422,93.813,182.98,94.352z
			 M182.327,98.526c0.26-0.529,0.39-1.118,0.39-1.767c0-0.586-0.094-1.063-0.281-1.43c-0.297-0.578-0.809-0.867-1.535-0.867
			c-0.645,0-1.113,0.246-1.406,0.738s-0.439,1.086-0.439,1.781c0,0.668,0.146,1.225,0.439,1.67s0.758,0.668,1.395,0.668
			C181.588,99.32,182.067,99.056,182.327,98.526z M175.563,91.809c0.246-0.359,0.721-0.539,1.424-0.539
			c0.066,0,0.135,0.002,0.205,0.006s0.15,0.01,0.24,0.018v0.961c-0.109-0.008-0.188-0.013-0.237-0.015s-0.095-0.003-0.138-0.003
			c-0.32,0-0.512,0.083-0.574,0.249s-0.094,0.589-0.094,1.269h1.043v0.832h-1.055V100h-1.043v-5.414h-0.873v-0.832h0.873V92.77
			C175.35,92.332,175.426,92.012,175.563,91.809z M169.697,98.031c0.031,0.352,0.119,0.621,0.264,0.809
			c0.266,0.34,0.727,0.51,1.383,0.51c0.391,0,0.734-0.085,1.031-0.255s0.445-0.433,0.445-0.788c0-0.27-0.119-0.475-0.357-0.615
			c-0.152-0.086-0.453-0.186-0.902-0.299l-0.838-0.211c-0.535-0.133-0.93-0.281-1.184-0.445c-0.453-0.285-0.68-0.68-0.68-1.184
			c0-0.594,0.214-1.074,0.642-1.441s1.003-0.551,1.726-0.551c0.945,0,1.627,0.277,2.045,0.832c0.262,0.352,0.389,0.73,0.381,1.137
			h-0.996c-0.02-0.238-0.104-0.455-0.252-0.65c-0.242-0.277-0.662-0.416-1.26-0.416c-0.398,0-0.7,0.076-0.905,0.229
			s-0.308,0.354-0.308,0.604c0,0.273,0.135,0.492,0.404,0.656c0.156,0.098,0.387,0.184,0.691,0.258l0.697,0.17
			c0.758,0.184,1.266,0.361,1.523,0.533c0.41,0.27,0.615,0.693,0.615,1.271c0,0.559-0.212,1.041-0.636,1.447
			s-1.069,0.609-1.937,0.609c-0.934,0-1.595-0.212-1.983-0.636s-0.597-0.948-0.624-1.573H169.697z M162.398,93.725h1.002v0.891
			c0.297-0.367,0.611-0.631,0.943-0.791s0.701-0.24,1.107-0.24c0.891,0,1.492,0.311,1.805,0.932c0.172,0.34,0.258,0.826,0.258,1.459
			V100h-1.072v-3.955c0-0.383-0.057-0.691-0.17-0.926c-0.188-0.391-0.527-0.586-1.02-0.586c-0.25,0-0.455,0.025-0.615,0.076
			c-0.289,0.086-0.543,0.258-0.762,0.516c-0.176,0.207-0.29,0.421-0.343,0.642s-0.079,0.536-0.079,0.946V100h-1.055V93.725z
			 M159.09,96.197c0.242-0.031,0.404-0.133,0.486-0.305c0.047-0.094,0.07-0.229,0.07-0.404c0-0.359-0.128-0.62-0.384-0.782
			s-0.622-0.243-1.099-0.243c-0.551,0-0.941,0.148-1.172,0.445c-0.129,0.164-0.213,0.408-0.252,0.732h-0.984
			c0.02-0.773,0.271-1.312,0.753-1.614s1.042-0.454,1.679-0.454c0.738,0,1.338,0.141,1.799,0.422
			c0.457,0.281,0.686,0.719,0.686,1.313v3.615c0,0.109,0.022,0.197,0.067,0.264s0.14,0.1,0.284,0.1c0.047,0,0.1-0.003,0.158-0.009
			s0.121-0.015,0.188-0.026v0.779c-0.164,0.047-0.289,0.076-0.375,0.088s-0.203,0.018-0.352,0.018c-0.363,0-0.627-0.129-0.791-0.387
			c-0.086-0.137-0.146-0.33-0.182-0.58c-0.215,0.281-0.523,0.525-0.926,0.732s-0.846,0.311-1.33,0.311
			c-0.582,0-1.058-0.177-1.427-0.53s-0.554-0.796-0.554-1.327c0-0.582,0.182-1.033,0.545-1.354s0.84-0.518,1.43-0.592L159.09,96.197
			z M156.869,99.051c0.223,0.176,0.486,0.264,0.791,0.264c0.371,0,0.73-0.086,1.078-0.258c0.586-0.285,0.879-0.752,0.879-1.4v-0.85
			c-0.129,0.082-0.295,0.15-0.498,0.205s-0.402,0.094-0.598,0.117l-0.639,0.082c-0.383,0.051-0.67,0.131-0.861,0.24
			c-0.324,0.184-0.486,0.477-0.486,0.879C156.535,98.635,156.646,98.875,156.869,99.051z M151.771,93.725h1.002v1.084
			c0.082-0.211,0.283-0.468,0.604-0.771s0.689-0.454,1.107-0.454c0.02,0,0.053,0.002,0.1,0.006s0.127,0.012,0.24,0.023v1.113
			c-0.063-0.012-0.12-0.02-0.173-0.023s-0.11-0.006-0.173-0.006c-0.531,0-0.939,0.171-1.225,0.513s-0.428,0.735-0.428,1.181V100
			h-1.055V93.725z M150.818,91.393v1.025h-2.9V100h-1.184v-7.582h-2.9v-1.025H150.818z M140.154,96.115h2.941v1.084h-2.941V96.115z
			 M133.332,97.223c0.027,0.488,0.143,0.885,0.346,1.189c0.387,0.57,1.068,0.855,2.045,0.855c0.438,0,0.836-0.063,1.195-0.188
			c0.695-0.242,1.043-0.676,1.043-1.301c0-0.469-0.146-0.803-0.439-1.002c-0.297-0.195-0.762-0.365-1.395-0.51l-1.166-0.264
			c-0.762-0.172-1.301-0.361-1.617-0.568c-0.547-0.359-0.82-0.896-0.82-1.611c0-0.773,0.268-1.408,0.803-1.904
			s1.293-0.744,2.273-0.744c0.902,0,1.669,0.218,2.3,0.653s0.946,1.132,0.946,2.089h-1.096c-0.059-0.461-0.184-0.814-0.375-1.061
			c-0.355-0.449-0.959-0.674-1.811-0.674c-0.688,0-1.182,0.145-1.482,0.434s-0.451,0.625-0.451,1.008
			c0,0.422,0.176,0.73,0.527,0.926c0.23,0.125,0.752,0.281,1.564,0.469l1.207,0.275c0.582,0.133,1.031,0.314,1.348,0.545
			c0.547,0.402,0.82,0.986,0.82,1.752c0,0.953-0.347,1.635-1.04,2.045s-1.499,0.615-2.417,0.615c-1.07,0-1.908-0.273-2.514-0.82
			c-0.605-0.543-0.902-1.279-0.891-2.209H133.332z M125.332,97.223c0.027,0.488,0.143,0.885,0.346,1.189
			c0.387,0.57,1.068,0.855,2.045,0.855c0.438,0,0.836-0.063,1.195-0.188c0.695-0.242,1.043-0.676,1.043-1.301
			c0-0.469-0.146-0.803-0.439-1.002c-0.297-0.195-0.762-0.365-1.395-0.51l-1.166-0.264c-0.762-0.172-1.301-0.361-1.617-0.568
			c-0.547-0.359-0.82-0.896-0.82-1.611c0-0.773,0.268-1.408,0.803-1.904s1.293-0.744,2.273-0.744c0.902,0,1.669,0.218,2.3,0.653
			s0.946,1.132,0.946,2.089h-1.096c-0.059-0.461-0.184-0.814-0.375-1.061c-0.355-0.449-0.959-0.674-1.811-0.674
			c-0.688,0-1.182,0.145-1.482,0.434s-0.451,0.625-0.451,1.008c0,0.422,0.176,0.73,0.527,0.926c0.23,0.125,0.752,0.281,1.564,0.469
			l1.207,0.275c0.582,0.133,1.031,0.314,1.348,0.545c0.547,0.402,0.82,0.986,0.82,1.752c0,0.953-0.347,1.635-1.04,2.045
			s-1.499,0.615-2.417,0.615c-1.07,0-1.908-0.273-2.514-0.82c-0.605-0.543-0.902-1.279-0.891-2.209H125.332z M122.078,92.02
			c0.602,0.574,0.936,1.227,1.002,1.957h-1.137c-0.129-0.555-0.386-0.994-0.771-1.318s-0.925-0.486-1.62-0.486
			c-0.848,0-1.532,0.298-2.054,0.894s-0.782,1.509-0.782,2.739c0,1.008,0.235,1.825,0.706,2.452s1.173,0.94,2.106,0.94
			c0.859,0,1.514-0.33,1.963-0.99c0.238-0.348,0.416-0.805,0.533-1.371h1.137c-0.102,0.906-0.438,1.666-1.008,2.279
			c-0.684,0.738-1.605,1.107-2.766,1.107c-1,0-1.84-0.303-2.52-0.908c-0.895-0.801-1.342-2.037-1.342-3.709
			c0-1.27,0.336-2.311,1.008-3.123c0.727-0.883,1.729-1.324,3.006-1.324C120.631,91.158,121.477,91.445,122.078,92.02z"/>
		<rect x="100.5" y="46.5" clip-path="url(#SVGID_6_)" fill="#FFFFFF" width="120" height="20"/>
		
			<rect x="100.5" y="46.5" clip-path="url(#SVGID_6_)" fill="none" stroke="#000000" stroke-miterlimit="10" width="120" height="20"/>
		<path clip-path="url(#SVGID_6_)" d="M186.75,55.107c-0.32-0.375-0.729-0.563-1.225-0.563c-0.742,0-1.25,0.348-1.523,1.043
			c-0.145,0.371-0.217,0.857-0.217,1.459c0,0.707,0.144,1.245,0.431,1.614s0.673,0.554,1.157,0.554c0.758,0,1.291-0.342,1.6-1.025
			c0.172-0.387,0.258-0.838,0.258-1.354C187.23,56.059,187.07,55.482,186.75,55.107z M186.621,53.977
			c0.199,0.137,0.402,0.336,0.609,0.598v-0.791h0.973v5.707c0,0.797-0.117,1.426-0.352,1.887c-0.438,0.852-1.264,1.277-2.479,1.277
			c-0.676,0-1.244-0.151-1.705-0.454s-0.719-0.776-0.773-1.421h1.072c0.051,0.281,0.152,0.498,0.305,0.65
			c0.238,0.234,0.613,0.352,1.125,0.352c0.809,0,1.338-0.285,1.588-0.855c0.148-0.336,0.217-0.936,0.205-1.799
			c-0.211,0.32-0.465,0.559-0.762,0.715s-0.689,0.234-1.178,0.234c-0.68,0-1.274-0.241-1.784-0.724s-0.765-1.28-0.765-2.394
			c0-1.051,0.257-1.871,0.771-2.461s1.134-0.885,1.86-0.885C185.824,53.613,186.254,53.734,186.621,53.977z M176.445,53.725h1.002
			v0.891c0.297-0.367,0.611-0.631,0.943-0.791s0.701-0.24,1.107-0.24c0.891,0,1.492,0.311,1.805,0.932
			c0.172,0.34,0.258,0.826,0.258,1.459V60h-1.072v-3.955c0-0.383-0.057-0.691-0.17-0.926c-0.188-0.391-0.527-0.586-1.02-0.586
			c-0.25,0-0.455,0.025-0.615,0.076c-0.289,0.086-0.543,0.258-0.762,0.516c-0.176,0.207-0.29,0.421-0.343,0.642
			s-0.079,0.536-0.079,0.946V60h-1.055V53.725z M173.789,51.393h1.072v1.195h-1.072V51.393z M173.789,53.754h1.072V60h-1.072V53.754
			z M170.75,55.107c-0.32-0.375-0.729-0.563-1.225-0.563c-0.742,0-1.25,0.348-1.523,1.043c-0.145,0.371-0.217,0.857-0.217,1.459
			c0,0.707,0.144,1.245,0.431,1.614s0.673,0.554,1.157,0.554c0.758,0,1.291-0.342,1.6-1.025c0.172-0.387,0.258-0.838,0.258-1.354
			C171.23,56.059,171.07,55.482,170.75,55.107z M170.621,53.977c0.199,0.137,0.402,0.336,0.609,0.598v-0.791h0.973v5.707
			c0,0.797-0.117,1.426-0.352,1.887c-0.438,0.852-1.264,1.277-2.479,1.277c-0.676,0-1.244-0.151-1.705-0.454
			s-0.719-0.776-0.773-1.421h1.072c0.051,0.281,0.152,0.498,0.305,0.65c0.238,0.234,0.613,0.352,1.125,0.352
			c0.809,0,1.338-0.285,1.588-0.855c0.148-0.336,0.217-0.936,0.205-1.799c-0.211,0.32-0.465,0.559-0.762,0.715
			s-0.689,0.234-1.178,0.234c-0.68,0-1.274-0.241-1.784-0.724s-0.765-1.28-0.765-2.394c0-1.051,0.257-1.871,0.771-2.461
			s1.134-0.885,1.86-0.885C169.824,53.613,170.254,53.734,170.621,53.977z M164.078,55.107c-0.32-0.375-0.729-0.563-1.225-0.563
			c-0.742,0-1.25,0.348-1.523,1.043c-0.145,0.371-0.217,0.857-0.217,1.459c0,0.707,0.144,1.245,0.431,1.614s0.673,0.554,1.157,0.554
			c0.758,0,1.291-0.342,1.6-1.025c0.172-0.387,0.258-0.838,0.258-1.354C164.559,56.059,164.398,55.482,164.078,55.107z
			 M163.949,53.977c0.199,0.137,0.402,0.336,0.609,0.598v-0.791h0.973v5.707c0,0.797-0.117,1.426-0.352,1.887
			c-0.438,0.852-1.264,1.277-2.479,1.277c-0.676,0-1.244-0.151-1.705-0.454s-0.719-0.776-0.773-1.421h1.072
			c0.051,0.281,0.152,0.498,0.305,0.65c0.238,0.234,0.613,0.352,1.125,0.352c0.809,0,1.338-0.285,1.588-0.855
			c0.148-0.336,0.217-0.936,0.205-1.799c-0.211,0.32-0.465,0.559-0.762,0.715s-0.689,0.234-1.178,0.234
			c-0.68,0-1.274-0.241-1.784-0.724s-0.765-1.28-0.765-2.394c0-1.051,0.257-1.871,0.771-2.461s1.134-0.885,1.86-0.885
			C163.152,53.613,163.582,53.734,163.949,53.977z M154.828,53.725v4.166c0,0.32,0.051,0.582,0.152,0.785
			c0.188,0.375,0.537,0.563,1.049,0.563c0.734,0,1.234-0.328,1.5-0.984c0.145-0.352,0.217-0.834,0.217-1.447v-3.082h1.055V60h-0.996
			l0.012-0.926c-0.137,0.238-0.307,0.439-0.51,0.604c-0.402,0.328-0.891,0.492-1.465,0.492c-0.895,0-1.504-0.299-1.828-0.896
			c-0.176-0.32-0.264-0.748-0.264-1.283v-4.266H154.828z M151.042,58.588c0.283-0.453,0.425-1.051,0.425-1.793
			c0-0.66-0.142-1.207-0.425-1.641s-0.7-0.65-1.251-0.65c-0.48,0-0.901,0.178-1.263,0.533s-0.542,0.941-0.542,1.758
			c0,0.59,0.074,1.068,0.223,1.436c0.277,0.691,0.795,1.037,1.553,1.037C150.332,59.268,150.759,59.041,151.042,58.588z
			 M147.02,51.363h1.025v3.123c0.23-0.301,0.506-0.53,0.826-0.688s0.668-0.237,1.043-0.237c0.781,0,1.415,0.269,1.901,0.806
			s0.729,1.329,0.729,2.376c0,0.992-0.24,1.816-0.721,2.473s-1.146,0.984-1.998,0.984c-0.477,0-0.879-0.115-1.207-0.346
			c-0.195-0.137-0.404-0.355-0.627-0.656V60h-0.973V51.363z M144.725,56.361c-0.043-0.457-0.143-0.822-0.299-1.096
			c-0.289-0.508-0.771-0.762-1.447-0.762c-0.484,0-0.891,0.175-1.219,0.524s-0.502,0.794-0.521,1.333H144.725z M144.338,53.897
			c0.418,0.209,0.736,0.479,0.955,0.812c0.211,0.316,0.352,0.686,0.422,1.107c0.063,0.289,0.094,0.75,0.094,1.383h-4.6
			c0.02,0.637,0.17,1.147,0.451,1.532s0.717,0.577,1.307,0.577c0.551,0,0.99-0.182,1.318-0.545c0.188-0.211,0.32-0.455,0.398-0.732
			h1.037c-0.027,0.23-0.118,0.487-0.272,0.771s-0.327,0.515-0.519,0.694c-0.32,0.313-0.717,0.523-1.189,0.633
			c-0.254,0.063-0.541,0.094-0.861,0.094c-0.781,0-1.443-0.284-1.986-0.853s-0.814-1.364-0.814-2.388
			c0-1.008,0.273-1.826,0.82-2.455s1.262-0.943,2.145-0.943C143.488,53.584,143.92,53.688,144.338,53.897z M131.967,51.393h3.486
			c1.184,0,2.102,0.42,2.754,1.26c0.582,0.758,0.873,1.729,0.873,2.912c0,0.914-0.172,1.74-0.516,2.479
			c-0.605,1.305-1.646,1.957-3.123,1.957h-3.475V51.393z M135.219,59.004c0.395,0,0.719-0.041,0.973-0.123
			c0.453-0.152,0.824-0.445,1.113-0.879c0.23-0.348,0.396-0.793,0.498-1.336c0.059-0.324,0.088-0.625,0.088-0.902
			c0-1.066-0.212-1.895-0.636-2.484s-1.106-0.885-2.048-0.885h-2.068v6.609H135.219z"/>
		<rect x="100.5" y="6.5" clip-path="url(#SVGID_6_)" fill="#FFFFFF" width="120" height="20"/>
		
			<rect x="100.5" y="6.5" clip-path="url(#SVGID_6_)" fill="none" stroke="#000000" stroke-miterlimit="10" width="120" height="20"/>
		<path clip-path="url(#SVGID_6_)" d="M194.01,18.031c0.031,0.352,0.119,0.621,0.264,0.809c0.266,0.34,0.727,0.51,1.383,0.51
			c0.391,0,0.734-0.085,1.031-0.255s0.445-0.433,0.445-0.788c0-0.27-0.119-0.475-0.357-0.615c-0.152-0.086-0.453-0.186-0.902-0.299
			l-0.838-0.211c-0.535-0.133-0.93-0.281-1.184-0.445c-0.453-0.285-0.68-0.68-0.68-1.184c0-0.594,0.214-1.074,0.642-1.441
			s1.003-0.551,1.726-0.551c0.945,0,1.627,0.277,2.045,0.832c0.262,0.352,0.389,0.73,0.381,1.137h-0.996
			c-0.02-0.238-0.104-0.455-0.252-0.65c-0.242-0.277-0.662-0.416-1.26-0.416c-0.398,0-0.7,0.076-0.905,0.229
			s-0.308,0.354-0.308,0.604c0,0.273,0.135,0.492,0.404,0.656c0.156,0.098,0.387,0.184,0.691,0.258l0.697,0.17
			c0.758,0.184,1.266,0.361,1.523,0.533c0.41,0.27,0.615,0.693,0.615,1.271c0,0.559-0.212,1.041-0.636,1.447
			s-1.069,0.609-1.937,0.609c-0.934,0-1.595-0.212-1.983-0.636s-0.597-0.948-0.624-1.573H194.01z M190.756,11.393h1.055V20h-1.055
			V11.393z M187.418,16.197c0.242-0.031,0.404-0.133,0.486-0.305c0.047-0.094,0.07-0.229,0.07-0.404c0-0.359-0.128-0.62-0.384-0.782
			s-0.622-0.243-1.099-0.243c-0.551,0-0.941,0.148-1.172,0.445c-0.129,0.164-0.213,0.408-0.252,0.732h-0.984
			c0.02-0.773,0.271-1.312,0.753-1.614s1.042-0.454,1.679-0.454c0.738,0,1.338,0.141,1.799,0.422
			c0.457,0.281,0.686,0.719,0.686,1.313v3.615c0,0.109,0.022,0.197,0.067,0.264s0.14,0.1,0.284,0.1c0.047,0,0.1-0.003,0.158-0.009
			s0.121-0.015,0.188-0.026v0.779c-0.164,0.047-0.289,0.076-0.375,0.088s-0.203,0.018-0.352,0.018c-0.363,0-0.627-0.129-0.791-0.387
			c-0.086-0.137-0.146-0.33-0.182-0.58c-0.215,0.281-0.523,0.525-0.926,0.732s-0.846,0.311-1.33,0.311
			c-0.582,0-1.058-0.177-1.427-0.53s-0.554-0.796-0.554-1.327c0-0.582,0.182-1.033,0.545-1.354s0.84-0.518,1.43-0.592
			L187.418,16.197z M185.197,19.051c0.223,0.176,0.486,0.264,0.791,0.264c0.371,0,0.73-0.086,1.078-0.258
			c0.586-0.285,0.879-0.752,0.879-1.4v-0.85c-0.129,0.082-0.295,0.15-0.498,0.205s-0.402,0.094-0.598,0.117l-0.639,0.082
			c-0.383,0.051-0.67,0.131-0.861,0.24c-0.324,0.184-0.486,0.477-0.486,0.879C184.863,18.635,184.975,18.875,185.197,19.051z
			 M181.398,11.393h1.072v1.195h-1.072V11.393z M181.398,13.754h1.072V20h-1.072V13.754z M177.443,13.725h1.002v1.084
			c0.082-0.211,0.283-0.468,0.604-0.771s0.689-0.454,1.107-0.454c0.02,0,0.053,0.002,0.1,0.006s0.127,0.012,0.24,0.023v1.113
			c-0.063-0.012-0.12-0.02-0.173-0.023s-0.11-0.006-0.173-0.006c-0.531,0-0.939,0.171-1.225,0.513s-0.428,0.735-0.428,1.181V20
			h-1.055V13.725z M175.037,16.361c-0.043-0.457-0.143-0.822-0.299-1.096c-0.289-0.508-0.771-0.762-1.447-0.762
			c-0.484,0-0.891,0.175-1.219,0.524s-0.502,0.794-0.521,1.333H175.037z M174.65,13.897c0.418,0.209,0.736,0.479,0.955,0.812
			c0.211,0.316,0.352,0.686,0.422,1.107c0.063,0.289,0.094,0.75,0.094,1.383h-4.6c0.02,0.637,0.17,1.147,0.451,1.532
			s0.717,0.577,1.307,0.577c0.551,0,0.99-0.182,1.318-0.545c0.188-0.211,0.32-0.455,0.398-0.732h1.037
			c-0.027,0.23-0.118,0.487-0.272,0.771s-0.327,0.515-0.519,0.694c-0.32,0.313-0.717,0.523-1.189,0.633
			c-0.254,0.063-0.541,0.094-0.861,0.094c-0.781,0-1.443-0.284-1.986-0.853s-0.814-1.364-0.814-2.388
			c0-1.008,0.273-1.826,0.82-2.455s1.262-0.943,2.145-0.943C173.801,13.584,174.232,13.688,174.65,13.897z M167.625,11.973h1.066
			v1.752h1.002v0.861h-1.002v4.096c0,0.219,0.074,0.365,0.223,0.439c0.082,0.043,0.219,0.064,0.41,0.064
			c0.051,0,0.105-0.001,0.164-0.003s0.127-0.007,0.205-0.015V20c-0.121,0.035-0.247,0.061-0.378,0.076s-0.272,0.023-0.425,0.023
			c-0.492,0-0.826-0.126-1.002-0.378s-0.264-0.579-0.264-0.981v-4.154h-0.85v-0.861h0.85V11.973z M164.105,16.197
			c0.242-0.031,0.404-0.133,0.486-0.305c0.047-0.094,0.07-0.229,0.07-0.404c0-0.359-0.128-0.62-0.384-0.782
			s-0.622-0.243-1.099-0.243c-0.551,0-0.941,0.148-1.172,0.445c-0.129,0.164-0.213,0.408-0.252,0.732h-0.984
			c0.02-0.773,0.271-1.312,0.753-1.614s1.042-0.454,1.679-0.454c0.738,0,1.338,0.141,1.799,0.422
			c0.457,0.281,0.686,0.719,0.686,1.313v3.615c0,0.109,0.022,0.197,0.067,0.264s0.14,0.1,0.284,0.1c0.047,0,0.1-0.003,0.158-0.009
			s0.121-0.015,0.188-0.026v0.779c-0.164,0.047-0.289,0.076-0.375,0.088s-0.203,0.018-0.352,0.018c-0.363,0-0.627-0.129-0.791-0.387
			c-0.086-0.137-0.146-0.33-0.182-0.58c-0.215,0.281-0.523,0.525-0.926,0.732s-0.846,0.311-1.33,0.311
			c-0.582,0-1.058-0.177-1.427-0.53s-0.554-0.796-0.554-1.327c0-0.582,0.182-1.033,0.545-1.354s0.84-0.518,1.43-0.592
			L164.105,16.197z M161.885,19.051c0.223,0.176,0.486,0.264,0.791,0.264c0.371,0,0.73-0.086,1.078-0.258
			c0.586-0.285,0.879-0.752,0.879-1.4v-0.85c-0.129,0.082-0.295,0.15-0.498,0.205s-0.402,0.094-0.598,0.117l-0.639,0.082
			c-0.383,0.051-0.67,0.131-0.861,0.24c-0.324,0.184-0.486,0.477-0.486,0.879C161.551,18.635,161.662,18.875,161.885,19.051z
			 M150.869,11.393h1.67l2.473,7.277l2.455-7.277h1.652V20h-1.107v-5.08c0-0.176,0.004-0.467,0.012-0.873s0.012-0.842,0.012-1.307
			L155.58,20h-1.154l-2.473-7.26v0.264c0,0.211,0.005,0.532,0.015,0.964s0.015,0.749,0.015,0.952V20h-1.113V11.393z M140.332,17.223
			c0.027,0.488,0.143,0.885,0.346,1.189c0.387,0.57,1.068,0.855,2.045,0.855c0.438,0,0.836-0.063,1.195-0.188
			c0.695-0.242,1.043-0.676,1.043-1.301c0-0.469-0.146-0.803-0.439-1.002c-0.297-0.195-0.762-0.365-1.395-0.51l-1.166-0.264
			c-0.762-0.172-1.301-0.361-1.617-0.568c-0.547-0.359-0.82-0.896-0.82-1.611c0-0.773,0.268-1.408,0.803-1.904
			s1.293-0.744,2.273-0.744c0.902,0,1.669,0.218,2.3,0.653s0.946,1.132,0.946,2.089h-1.096c-0.059-0.461-0.184-0.814-0.375-1.061
			c-0.355-0.449-0.959-0.674-1.811-0.674c-0.688,0-1.182,0.145-1.482,0.434s-0.451,0.625-0.451,1.008
			c0,0.422,0.176,0.73,0.527,0.926c0.23,0.125,0.752,0.281,1.564,0.469l1.207,0.275c0.582,0.133,1.031,0.314,1.348,0.545
			c0.547,0.402,0.82,0.986,0.82,1.752c0,0.953-0.347,1.635-1.04,2.045s-1.499,0.615-2.417,0.615c-1.07,0-1.908-0.273-2.514-0.82
			c-0.605-0.543-0.902-1.279-0.891-2.209H140.332z M132.332,17.223c0.027,0.488,0.143,0.885,0.346,1.189
			c0.387,0.57,1.068,0.855,2.045,0.855c0.438,0,0.836-0.063,1.195-0.188c0.695-0.242,1.043-0.676,1.043-1.301
			c0-0.469-0.146-0.803-0.439-1.002c-0.297-0.195-0.762-0.365-1.395-0.51l-1.166-0.264c-0.762-0.172-1.301-0.361-1.617-0.568
			c-0.547-0.359-0.82-0.896-0.82-1.611c0-0.773,0.268-1.408,0.803-1.904s1.293-0.744,2.273-0.744c0.902,0,1.669,0.218,2.3,0.653
			s0.946,1.132,0.946,2.089h-1.096c-0.059-0.461-0.184-0.814-0.375-1.061c-0.355-0.449-0.959-0.674-1.811-0.674
			c-0.688,0-1.182,0.145-1.482,0.434s-0.451,0.625-0.451,1.008c0,0.422,0.176,0.73,0.527,0.926c0.23,0.125,0.752,0.281,1.564,0.469
			l1.207,0.275c0.582,0.133,1.031,0.314,1.348,0.545c0.547,0.402,0.82,0.986,0.82,1.752c0,0.953-0.347,1.635-1.04,2.045
			s-1.499,0.615-2.417,0.615c-1.07,0-1.908-0.273-2.514-0.82c-0.605-0.543-0.902-1.279-0.891-2.209H132.332z M129.078,12.02
			c0.602,0.574,0.936,1.227,1.002,1.957h-1.137c-0.129-0.555-0.386-0.994-0.771-1.318s-0.925-0.486-1.62-0.486
			c-0.848,0-1.532,0.298-2.054,0.894s-0.782,1.509-0.782,2.739c0,1.008,0.235,1.825,0.706,2.452s1.173,0.94,2.106,0.94
			c0.859,0,1.514-0.33,1.963-0.99c0.238-0.348,0.416-0.805,0.533-1.371h1.137c-0.102,0.906-0.438,1.666-1.008,2.279
			c-0.684,0.738-1.605,1.107-2.766,1.107c-1,0-1.84-0.303-2.52-0.908c-0.895-0.801-1.342-2.037-1.342-3.709
			c0-1.27,0.336-2.311,1.008-3.123c0.727-0.883,1.729-1.324,3.006-1.324C127.631,11.158,128.477,11.445,129.078,12.02z"/>
		
			<line clip-path="url(#SVGID_6_)" fill="none" stroke="#000000" stroke-miterlimit="10" stroke-dasharray="3,3" x1="0.5" y1="156.5" x2="320.5" y2="156.5"/>
		
			<line clip-path="url(#SVGID_6_)" fill="none" stroke="#000000" stroke-miterlimit="10" stroke-dasharray="3,3" x1="0.5" y1="116.5" x2="320.5" y2="116.5"/>
		
			<line clip-path="url(#SVGID_6_)" fill="none" stroke="#000000" stroke-miterlimit="10" stroke-dasharray="3,3" x1="0.5" y1="36.5" x2="320.5" y2="36.5"/>
		<path clip-path="url(#SVGID_6_)" d="M65.148,173.059v-0.809c0.762-0.074,1.293-0.198,1.594-0.372s0.525-0.585,0.674-1.233h0.832
			V179h-1.125v-5.941H65.148z M58.818,170.393h1.055V179h-1.055V170.393z M56.412,175.361c-0.043-0.457-0.143-0.822-0.299-1.096
			c-0.289-0.508-0.771-0.762-1.447-0.762c-0.484,0-0.891,0.175-1.219,0.524s-0.502,0.794-0.521,1.333H56.412z M56.025,172.897
			c0.418,0.209,0.736,0.479,0.955,0.812c0.211,0.316,0.352,0.686,0.422,1.107c0.063,0.289,0.094,0.75,0.094,1.383h-4.6
			c0.02,0.637,0.17,1.147,0.451,1.532s0.717,0.577,1.307,0.577c0.551,0,0.99-0.182,1.318-0.545c0.188-0.211,0.32-0.455,0.398-0.732
			h1.037c-0.027,0.23-0.118,0.487-0.272,0.771s-0.327,0.515-0.519,0.694c-0.32,0.313-0.717,0.523-1.189,0.633
			c-0.254,0.063-0.541,0.094-0.861,0.094c-0.781,0-1.443-0.284-1.986-0.853s-0.814-1.364-0.814-2.388
			c0-1.008,0.273-1.826,0.82-2.455s1.262-0.943,2.145-0.943C55.176,172.584,55.607,172.688,56.025,172.897z M46.633,172.725
			l1.676,5.109l1.752-5.109h1.154L48.848,179h-1.125l-2.314-6.275H46.633z M43.74,175.361c-0.043-0.457-0.143-0.822-0.299-1.096
			c-0.289-0.508-0.771-0.762-1.447-0.762c-0.484,0-0.891,0.175-1.219,0.524s-0.502,0.794-0.521,1.333H43.74z M43.354,172.897
			c0.418,0.209,0.736,0.479,0.955,0.812c0.211,0.316,0.352,0.686,0.422,1.107c0.063,0.289,0.094,0.75,0.094,1.383h-4.6
			c0.02,0.637,0.17,1.147,0.451,1.532s0.717,0.577,1.307,0.577c0.551,0,0.99-0.182,1.318-0.545c0.188-0.211,0.32-0.455,0.398-0.732
			h1.037c-0.027,0.23-0.118,0.487-0.272,0.771s-0.327,0.515-0.519,0.694c-0.32,0.313-0.717,0.523-1.189,0.633
			c-0.254,0.063-0.541,0.094-0.861,0.094c-0.781,0-1.443-0.284-1.986-0.853s-0.814-1.364-0.814-2.388
			c0-1.008,0.273-1.826,0.82-2.455s1.262-0.943,2.145-0.943C42.504,172.584,42.936,172.688,43.354,172.897z M32.914,170.393h1.166
			v7.582h4.359V179h-5.525V170.393z"/>
		<path clip-path="url(#SVGID_6_)" d="M64.823,137.113c0.26-0.535,0.767-1.021,1.521-1.459l1.125-0.65
			c0.504-0.293,0.857-0.543,1.061-0.75c0.32-0.324,0.48-0.695,0.48-1.113c0-0.488-0.146-0.876-0.439-1.163s-0.684-0.431-1.172-0.431
			c-0.723,0-1.223,0.273-1.5,0.82c-0.148,0.293-0.23,0.699-0.246,1.219H64.58c0.012-0.73,0.146-1.326,0.404-1.787
			c0.457-0.813,1.264-1.219,2.42-1.219c0.961,0,1.663,0.26,2.106,0.779s0.665,1.098,0.665,1.734c0,0.672-0.236,1.246-0.709,1.723
			c-0.273,0.277-0.764,0.613-1.471,1.008l-0.803,0.445c-0.383,0.211-0.684,0.412-0.902,0.604c-0.391,0.34-0.637,0.717-0.738,1.131
			h4.582V139h-5.76C64.414,138.277,64.563,137.648,64.823,137.113z M58.818,130.393h1.055V139h-1.055V130.393z M56.412,135.361
			c-0.043-0.457-0.143-0.822-0.299-1.096c-0.289-0.508-0.771-0.762-1.447-0.762c-0.484,0-0.891,0.175-1.219,0.524
			s-0.502,0.794-0.521,1.333H56.412z M56.025,132.897c0.418,0.209,0.736,0.479,0.955,0.812c0.211,0.316,0.352,0.686,0.422,1.107
			c0.063,0.289,0.094,0.75,0.094,1.383h-4.6c0.02,0.637,0.17,1.147,0.451,1.532s0.717,0.577,1.307,0.577
			c0.551,0,0.99-0.182,1.318-0.545c0.188-0.211,0.32-0.455,0.398-0.732h1.037c-0.027,0.23-0.118,0.487-0.272,0.771
			s-0.327,0.515-0.519,0.694c-0.32,0.313-0.717,0.523-1.189,0.633c-0.254,0.063-0.541,0.094-0.861,0.094
			c-0.781,0-1.443-0.284-1.986-0.853s-0.814-1.364-0.814-2.388c0-1.008,0.273-1.826,0.82-2.455s1.262-0.943,2.145-0.943
			C55.176,132.584,55.607,132.688,56.025,132.897z M46.633,132.725l1.676,5.109l1.752-5.109h1.154L48.848,139h-1.125l-2.314-6.275
			H46.633z M43.74,135.361c-0.043-0.457-0.143-0.822-0.299-1.096c-0.289-0.508-0.771-0.762-1.447-0.762
			c-0.484,0-0.891,0.175-1.219,0.524s-0.502,0.794-0.521,1.333H43.74z M43.354,132.897c0.418,0.209,0.736,0.479,0.955,0.812
			c0.211,0.316,0.352,0.686,0.422,1.107c0.063,0.289,0.094,0.75,0.094,1.383h-4.6c0.02,0.637,0.17,1.147,0.451,1.532
			s0.717,0.577,1.307,0.577c0.551,0,0.99-0.182,1.318-0.545c0.188-0.211,0.32-0.455,0.398-0.732h1.037
			c-0.027,0.23-0.118,0.487-0.272,0.771s-0.327,0.515-0.519,0.694c-0.32,0.313-0.717,0.523-1.189,0.633
			c-0.254,0.063-0.541,0.094-0.861,0.094c-0.781,0-1.443-0.284-1.986-0.853s-0.814-1.364-0.814-2.388
			c0-1.008,0.273-1.826,0.82-2.455s1.262-0.943,2.145-0.943C42.504,132.584,42.936,132.688,43.354,132.897z M32.914,130.393h1.166
			v7.582h4.359V139h-5.525V130.393z"/>
		<path clip-path="url(#SVGID_6_)" d="M64.958,82.411c-0.447-0.545-0.671-1.208-0.671-1.989h1.102
			c0.047,0.543,0.148,0.938,0.305,1.184c0.273,0.441,0.768,0.662,1.482,0.662c0.555,0,1-0.148,1.336-0.445s0.504-0.68,0.504-1.148
			c0-0.578-0.177-0.982-0.53-1.213s-0.845-0.346-1.474-0.346c-0.07,0-0.142,0.001-0.214,0.003s-0.146,0.005-0.22,0.009v-0.932
			c0.109,0.012,0.201,0.02,0.275,0.023s0.154,0.006,0.24,0.006c0.395,0,0.719-0.063,0.973-0.188
			c0.445-0.219,0.668-0.609,0.668-1.172c0-0.418-0.148-0.74-0.445-0.967s-0.643-0.34-1.037-0.34c-0.703,0-1.189,0.234-1.459,0.703
			c-0.148,0.258-0.232,0.625-0.252,1.102h-1.043c0-0.625,0.125-1.156,0.375-1.594c0.43-0.781,1.186-1.172,2.268-1.172
			c0.855,0,1.518,0.19,1.986,0.571s0.703,0.933,0.703,1.655c0,0.516-0.139,0.934-0.416,1.254c-0.172,0.199-0.395,0.355-0.668,0.469
			c0.441,0.121,0.786,0.354,1.034,0.7s0.372,0.769,0.372,1.269c0,0.801-0.264,1.453-0.791,1.957s-1.275,0.756-2.244,0.756
			C66.125,83.229,65.405,82.956,64.958,82.411z M58.818,74.393h1.055V83h-1.055V74.393z M56.412,79.361
			c-0.043-0.457-0.143-0.822-0.299-1.096c-0.289-0.508-0.771-0.762-1.447-0.762c-0.484,0-0.891,0.175-1.219,0.524
			s-0.502,0.794-0.521,1.333H56.412z M56.025,76.897c0.418,0.209,0.736,0.479,0.955,0.812c0.211,0.316,0.352,0.686,0.422,1.107
			c0.063,0.289,0.094,0.75,0.094,1.383h-4.6c0.02,0.637,0.17,1.147,0.451,1.532s0.717,0.577,1.307,0.577
			c0.551,0,0.99-0.182,1.318-0.545c0.188-0.211,0.32-0.455,0.398-0.732h1.037c-0.027,0.23-0.118,0.487-0.272,0.771
			s-0.327,0.515-0.519,0.694c-0.32,0.313-0.717,0.523-1.189,0.633c-0.254,0.063-0.541,0.094-0.861,0.094
			c-0.781,0-1.443-0.284-1.986-0.853s-0.814-1.364-0.814-2.388c0-1.008,0.273-1.826,0.82-2.455s1.262-0.943,2.145-0.943
			C55.176,76.584,55.607,76.688,56.025,76.897z M46.633,76.725l1.676,5.109l1.752-5.109h1.154L48.848,83h-1.125l-2.314-6.275H46.633
			z M43.74,79.361c-0.043-0.457-0.143-0.822-0.299-1.096c-0.289-0.508-0.771-0.762-1.447-0.762c-0.484,0-0.891,0.175-1.219,0.524
			s-0.502,0.794-0.521,1.333H43.74z M43.354,76.897c0.418,0.209,0.736,0.479,0.955,0.812c0.211,0.316,0.352,0.686,0.422,1.107
			c0.063,0.289,0.094,0.75,0.094,1.383h-4.6c0.02,0.637,0.17,1.147,0.451,1.532s0.717,0.577,1.307,0.577
			c0.551,0,0.99-0.182,1.318-0.545c0.188-0.211,0.32-0.455,0.398-0.732h1.037c-0.027,0.23-0.118,0.487-0.272,0.771
			s-0.327,0.515-0.519,0.694c-0.32,0.313-0.717,0.523-1.189,0.633c-0.254,0.063-0.541,0.094-0.861,0.094
			c-0.781,0-1.443-0.284-1.986-0.853s-0.814-1.364-0.814-2.388c0-1.008,0.273-1.826,0.82-2.455s1.262-0.943,2.145-0.943
			C42.504,76.584,42.936,76.688,43.354,76.897z M32.914,74.393h1.166v7.582h4.359V83h-5.525V74.393z"/>
		<path clip-path="url(#SVGID_6_)" d="M67.984,19v-2.051h-3.68v-1.031l3.844-5.332h0.891v5.443h1.236v0.92h-1.236V19H67.984z
			 M67.967,16.029v-3.803l-2.689,3.803H67.967z M58.818,10.393h1.055V19h-1.055V10.393z M56.412,15.361
			c-0.043-0.457-0.143-0.822-0.299-1.096c-0.289-0.508-0.771-0.762-1.447-0.762c-0.484,0-0.891,0.175-1.219,0.524
			s-0.502,0.794-0.521,1.333H56.412z M56.025,12.897c0.418,0.209,0.736,0.479,0.955,0.812c0.211,0.316,0.352,0.686,0.422,1.107
			c0.063,0.289,0.094,0.75,0.094,1.383h-4.6c0.02,0.637,0.17,1.147,0.451,1.532s0.717,0.577,1.307,0.577
			c0.551,0,0.99-0.182,1.318-0.545c0.188-0.211,0.32-0.455,0.398-0.732h1.037c-0.027,0.23-0.118,0.487-0.272,0.771
			s-0.327,0.515-0.519,0.694c-0.32,0.313-0.717,0.523-1.189,0.633c-0.254,0.063-0.541,0.094-0.861,0.094
			c-0.781,0-1.443-0.284-1.986-0.853s-0.814-1.364-0.814-2.388c0-1.008,0.273-1.826,0.82-2.455s1.262-0.943,2.145-0.943
			C55.176,12.584,55.607,12.688,56.025,12.897z M46.633,12.725l1.676,5.109l1.752-5.109h1.154L48.848,19h-1.125l-2.314-6.275H46.633
			z M43.74,15.361c-0.043-0.457-0.143-0.822-0.299-1.096c-0.289-0.508-0.771-0.762-1.447-0.762c-0.484,0-0.891,0.175-1.219,0.524
			s-0.502,0.794-0.521,1.333H43.74z M43.354,12.897c0.418,0.209,0.736,0.479,0.955,0.812c0.211,0.316,0.352,0.686,0.422,1.107
			c0.063,0.289,0.094,0.75,0.094,1.383h-4.6c0.02,0.637,0.17,1.147,0.451,1.532s0.717,0.577,1.307,0.577
			c0.551,0,0.99-0.182,1.318-0.545c0.188-0.211,0.32-0.455,0.398-0.732h1.037c-0.027,0.23-0.118,0.487-0.272,0.771
			s-0.327,0.515-0.519,0.694c-0.32,0.313-0.717,0.523-1.189,0.633c-0.254,0.063-0.541,0.094-0.861,0.094
			c-0.781,0-1.443-0.284-1.986-0.853s-0.814-1.364-0.814-2.388c0-1.008,0.273-1.826,0.82-2.455s1.262-0.943,2.145-0.943
			C42.504,12.584,42.936,12.688,43.354,12.897z M32.914,10.393h1.166v7.582h4.359V19h-5.525V10.393z"/>
		<path clip-path="url(#SVGID_6_)" d="M271.713,177.031c0.031,0.352,0.119,0.621,0.264,0.809c0.266,0.34,0.727,0.51,1.383,0.51
			c0.391,0,0.734-0.085,1.031-0.255s0.445-0.433,0.445-0.788c0-0.27-0.119-0.475-0.357-0.615c-0.152-0.086-0.453-0.186-0.902-0.299
			l-0.838-0.211c-0.535-0.133-0.93-0.281-1.184-0.445c-0.453-0.285-0.68-0.68-0.68-1.184c0-0.594,0.214-1.074,0.642-1.441
			s1.003-0.551,1.726-0.551c0.945,0,1.627,0.277,2.045,0.832c0.262,0.352,0.389,0.73,0.381,1.137h-0.996
			c-0.02-0.238-0.104-0.455-0.252-0.65c-0.242-0.277-0.662-0.416-1.26-0.416c-0.398,0-0.7,0.076-0.905,0.229
			s-0.308,0.354-0.308,0.604c0,0.273,0.135,0.492,0.404,0.656c0.156,0.098,0.387,0.184,0.691,0.258l0.697,0.17
			c0.758,0.184,1.266,0.361,1.523,0.533c0.41,0.27,0.615,0.693,0.615,1.271c0,0.559-0.212,1.041-0.636,1.447
			s-1.069,0.609-1.937,0.609c-0.934,0-1.595-0.212-1.983-0.636s-0.597-0.948-0.624-1.573H271.713z M267.434,180.588
			c0.473-0.016,0.757-0.058,0.853-0.126s0.144-0.282,0.144-0.642v-7.066h1.055v7.178c0,0.457-0.074,0.799-0.223,1.025
			c-0.246,0.383-0.713,0.574-1.4,0.574c-0.051,0-0.104-0.002-0.161-0.006s-0.146-0.012-0.267-0.023V180.588z M269.484,171.611
			h-1.055v-1.219h1.055V171.611z M265.354,177.723h1.225V179h-1.225V177.723z M262.725,175.361
			c-0.043-0.457-0.143-0.822-0.299-1.096c-0.289-0.508-0.771-0.762-1.447-0.762c-0.484,0-0.891,0.175-1.219,0.524
			s-0.502,0.794-0.521,1.333H262.725z M262.338,172.897c0.418,0.209,0.736,0.479,0.955,0.812c0.211,0.316,0.352,0.686,0.422,1.107
			c0.063,0.289,0.094,0.75,0.094,1.383h-4.6c0.02,0.637,0.17,1.147,0.451,1.532s0.717,0.577,1.307,0.577
			c0.551,0,0.99-0.182,1.318-0.545c0.188-0.211,0.32-0.455,0.398-0.732h1.037c-0.027,0.23-0.118,0.487-0.272,0.771
			s-0.327,0.515-0.519,0.694c-0.32,0.313-0.717,0.523-1.189,0.633c-0.254,0.063-0.541,0.094-0.861,0.094
			c-0.781,0-1.443-0.284-1.986-0.853s-0.814-1.364-0.814-2.388c0-1.008,0.273-1.826,0.82-2.455s1.262-0.943,2.145-0.943
			C261.488,172.584,261.92,172.688,262.338,172.897z M256.053,175.361c-0.043-0.457-0.143-0.822-0.299-1.096
			c-0.289-0.508-0.771-0.762-1.447-0.762c-0.484,0-0.891,0.175-1.219,0.524s-0.502,0.794-0.521,1.333H256.053z M255.666,172.897
			c0.418,0.209,0.736,0.479,0.955,0.812c0.211,0.316,0.352,0.686,0.422,1.107c0.063,0.289,0.094,0.75,0.094,1.383h-4.6
			c0.02,0.637,0.17,1.147,0.451,1.532s0.717,0.577,1.307,0.577c0.551,0,0.99-0.182,1.318-0.545c0.188-0.211,0.32-0.455,0.398-0.732
			h1.037c-0.027,0.23-0.118,0.487-0.272,0.771s-0.327,0.515-0.519,0.694c-0.32,0.313-0.717,0.523-1.189,0.633
			c-0.254,0.063-0.541,0.094-0.861,0.094c-0.781,0-1.443-0.284-1.986-0.853s-0.814-1.364-0.814-2.388
			c0-1.008,0.273-1.826,0.82-2.455s1.262-0.943,2.145-0.943C254.816,172.584,255.248,172.688,255.666,172.897z M247.803,172.725
			h1.002v1.084c0.082-0.211,0.283-0.468,0.604-0.771s0.689-0.454,1.107-0.454c0.02,0,0.053,0.002,0.1,0.006s0.127,0.012,0.24,0.023
			v1.113c-0.063-0.012-0.12-0.02-0.173-0.023s-0.11-0.006-0.173-0.006c-0.531,0-0.939,0.171-1.225,0.513s-0.428,0.735-0.428,1.181
			V179h-1.055V172.725z M241.102,170.363h1.055v3.211c0.25-0.316,0.475-0.539,0.674-0.668c0.34-0.223,0.764-0.334,1.271-0.334
			c0.91,0,1.527,0.318,1.852,0.955c0.176,0.348,0.264,0.83,0.264,1.447V179h-1.084v-3.955c0-0.461-0.059-0.799-0.176-1.014
			c-0.191-0.344-0.551-0.516-1.078-0.516c-0.438,0-0.834,0.15-1.189,0.451s-0.533,0.869-0.533,1.705V179h-1.055V170.363z
			 M237.984,170.973h1.066v1.752h1.002v0.861h-1.002v4.096c0,0.219,0.074,0.365,0.223,0.439c0.082,0.043,0.219,0.064,0.41,0.064
			c0.051,0,0.105-0.001,0.164-0.003s0.127-0.007,0.205-0.015V179c-0.121,0.035-0.247,0.061-0.378,0.076s-0.272,0.023-0.425,0.023
			c-0.492,0-0.826-0.126-1.002-0.378s-0.264-0.579-0.264-0.981v-4.154h-0.85v-0.861h0.85V170.973z"/>
		<path clip-path="url(#SVGID_6_)" d="M354.494,85.393h1.67l2.473,7.277l2.455-7.277h1.652V94h-1.107v-5.08
			c0-0.176,0.004-0.467,0.012-0.873s0.012-0.842,0.012-1.307L359.205,94h-1.154l-2.473-7.26v0.264c0,0.211,0.005,0.532,0.015,0.964
			s0.015,0.749,0.015,0.952V94h-1.113V85.393z M351.257,92.104c0.459-0.736,0.688-1.583,0.688-2.54c0-1.012-0.265-1.826-0.794-2.443
			s-1.253-0.926-2.171-0.926c-0.891,0-1.617,0.306-2.18,0.917s-0.844,1.513-0.844,2.704c0,0.953,0.241,1.757,0.724,2.411
			s1.265,0.981,2.347,0.981C350.055,93.209,350.798,92.841,351.257,92.104z M352.285,86.623c0.57,0.762,0.855,1.736,0.855,2.924
			c0,1.285-0.326,2.354-0.979,3.205c-0.766,1-1.857,1.5-3.275,1.5c-1.324,0-2.365-0.438-3.123-1.313
			c-0.676-0.844-1.014-1.91-1.014-3.199c0-1.164,0.289-2.16,0.867-2.988c0.742-1.063,1.84-1.594,3.293-1.594
			C350.43,85.158,351.555,85.646,352.285,86.623z M336.592,85.393h3.486c1.184,0,2.102,0.42,2.754,1.26
			c0.582,0.758,0.873,1.729,0.873,2.912c0,0.914-0.172,1.74-0.516,2.479c-0.605,1.305-1.646,1.957-3.123,1.957h-3.475V85.393z
			 M339.844,93.004c0.395,0,0.719-0.041,0.973-0.123c0.453-0.152,0.824-0.445,1.113-0.879c0.23-0.348,0.396-0.793,0.498-1.336
			c0.059-0.324,0.088-0.625,0.088-0.902c0-1.066-0.212-1.895-0.636-2.484s-1.106-0.885-2.048-0.885h-2.068v6.609H339.844z
			 M329.911,93.411c-0.447-0.545-0.671-1.208-0.671-1.989h1.102c0.047,0.543,0.148,0.938,0.305,1.184
			c0.273,0.441,0.768,0.662,1.482,0.662c0.555,0,1-0.148,1.336-0.445s0.504-0.68,0.504-1.148c0-0.578-0.177-0.982-0.53-1.213
			s-0.845-0.346-1.474-0.346c-0.07,0-0.142,0.001-0.214,0.003s-0.146,0.005-0.22,0.009v-0.932c0.109,0.012,0.201,0.02,0.275,0.023
			s0.154,0.006,0.24,0.006c0.395,0,0.719-0.063,0.973-0.188c0.445-0.219,0.668-0.609,0.668-1.172c0-0.418-0.148-0.74-0.445-0.967
			s-0.643-0.34-1.037-0.34c-0.703,0-1.189,0.234-1.459,0.703c-0.148,0.258-0.232,0.625-0.252,1.102h-1.043
			c0-0.625,0.125-1.156,0.375-1.594c0.43-0.781,1.186-1.172,2.268-1.172c0.855,0,1.518,0.19,1.986,0.571s0.703,0.933,0.703,1.655
			c0,0.516-0.139,0.934-0.416,1.254c-0.172,0.199-0.395,0.355-0.668,0.469c0.441,0.121,0.786,0.354,1.034,0.7
			s0.372,0.769,0.372,1.269c0,0.801-0.264,1.453-0.791,1.957s-1.275,0.756-2.244,0.756
			C331.078,94.229,330.358,93.956,329.911,93.411z M322.605,94h-1.406l3.082-4.412l-2.889-4.195h1.459l2.197,3.293l2.18-3.293h1.389
			l-2.889,4.195L328.758,94h-1.447l-2.32-3.539L322.605,94z M320.355,85.393h0.891L318.516,94h-0.891L320.355,85.393z
			 M309.936,85.393h3.486c1.184,0,2.102,0.42,2.754,1.26c0.582,0.758,0.873,1.729,0.873,2.912c0,0.914-0.172,1.74-0.516,2.479
			C315.928,93.348,314.887,94,313.41,94h-3.475V85.393z M313.188,93.004c0.395,0,0.719-0.041,0.973-0.123
			c0.453-0.152,0.824-0.445,1.113-0.879c0.23-0.348,0.396-0.793,0.498-1.336c0.059-0.324,0.088-0.625,0.088-0.902
			c0-1.066-0.212-1.895-0.636-2.484s-1.106-0.885-2.048-0.885h-2.068v6.609H313.188z M303.255,93.411
			c-0.447-0.545-0.671-1.208-0.671-1.989h1.102c0.047,0.543,0.148,0.938,0.305,1.184c0.273,0.441,0.768,0.662,1.482,0.662
			c0.555,0,1-0.148,1.336-0.445s0.504-0.68,0.504-1.148c0-0.578-0.177-0.982-0.53-1.213s-0.845-0.346-1.474-0.346
			c-0.07,0-0.142,0.001-0.214,0.003s-0.146,0.005-0.22,0.009v-0.932c0.109,0.012,0.201,0.02,0.275,0.023s0.154,0.006,0.24,0.006
			c0.395,0,0.719-0.063,0.973-0.188c0.445-0.219,0.668-0.609,0.668-1.172c0-0.418-0.148-0.74-0.445-0.967s-0.643-0.34-1.037-0.34
			c-0.703,0-1.189,0.234-1.459,0.703c-0.148,0.258-0.232,0.625-0.252,1.102h-1.043c0-0.625,0.125-1.156,0.375-1.594
			c0.43-0.781,1.186-1.172,2.268-1.172c0.855,0,1.518,0.19,1.986,0.571s0.703,0.933,0.703,1.655c0,0.516-0.139,0.934-0.416,1.254
			c-0.172,0.199-0.395,0.355-0.668,0.469c0.441,0.121,0.786,0.354,1.034,0.7s0.372,0.769,0.372,1.269
			c0,0.801-0.264,1.453-0.791,1.957s-1.275,0.756-2.244,0.756C304.422,94.229,303.702,93.956,303.255,93.411z M296.539,85.393h1.166
			v7.582h4.359V94h-5.525V85.393z M286.525,85.393h1.67l2.473,7.277l2.455-7.277h1.652V94h-1.107v-5.08
			c0-0.176,0.004-0.467,0.012-0.873s0.012-0.842,0.012-1.307L291.236,94h-1.154l-2.473-7.26v0.264c0,0.211,0.005,0.532,0.015,0.964
			s0.015,0.749,0.015,0.952V94h-1.113V85.393z M279.293,94h-1.406l3.082-4.412l-2.889-4.195h1.459l2.197,3.293l2.18-3.293h1.389
			l-2.889,4.195L285.445,94h-1.447l-2.32-3.539L279.293,94z M271.969,85.973h1.066v1.752h1.002v0.861h-1.002v4.096
			c0,0.219,0.074,0.365,0.223,0.439c0.082,0.043,0.219,0.064,0.41,0.064c0.051,0,0.105-0.001,0.164-0.003s0.127-0.007,0.205-0.015
			V94c-0.121,0.035-0.247,0.061-0.378,0.076s-0.272,0.023-0.425,0.023c-0.492,0-0.826-0.126-1.002-0.378s-0.264-0.579-0.264-0.981
			v-4.154h-0.85v-0.861h0.85V85.973z M265.086,87.725h1.002v0.891c0.297-0.367,0.611-0.631,0.943-0.791s0.701-0.24,1.107-0.24
			c0.891,0,1.492,0.311,1.805,0.932c0.172,0.34,0.258,0.826,0.258,1.459V94h-1.072v-3.955c0-0.383-0.057-0.691-0.17-0.926
			c-0.188-0.391-0.527-0.586-1.02-0.586c-0.25,0-0.455,0.025-0.615,0.076c-0.289,0.086-0.543,0.258-0.762,0.516
			c-0.176,0.207-0.29,0.421-0.343,0.642s-0.079,0.536-0.079,0.946V94h-1.055V87.725z M262.709,90.361
			c-0.043-0.457-0.143-0.822-0.299-1.096c-0.289-0.508-0.771-0.762-1.447-0.762c-0.484,0-0.891,0.175-1.219,0.524
			s-0.502,0.794-0.521,1.333H262.709z M262.322,87.897c0.418,0.209,0.736,0.479,0.955,0.812c0.211,0.316,0.352,0.686,0.422,1.107
			c0.063,0.289,0.094,0.75,0.094,1.383h-4.6c0.02,0.637,0.17,1.147,0.451,1.532s0.717,0.577,1.307,0.577
			c0.551,0,0.99-0.182,1.318-0.545c0.188-0.211,0.32-0.455,0.398-0.732h1.037c-0.027,0.23-0.118,0.487-0.272,0.771
			s-0.327,0.515-0.519,0.694c-0.32,0.313-0.717,0.523-1.189,0.633c-0.254,0.063-0.541,0.094-0.861,0.094
			c-0.781,0-1.443-0.284-1.986-0.853s-0.814-1.364-0.814-2.388c0-1.008,0.273-1.826,0.82-2.455s1.262-0.943,2.145-0.943
			C261.473,87.584,261.904,87.688,262.322,87.897z M254.459,87.725h1.002v1.084c0.082-0.211,0.283-0.468,0.604-0.771
			s0.689-0.454,1.107-0.454c0.02,0,0.053,0.002,0.1,0.006s0.127,0.012,0.24,0.023v1.113c-0.063-0.012-0.12-0.02-0.173-0.023
			s-0.11-0.006-0.173-0.006c-0.531,0-0.939,0.171-1.225,0.513s-0.428,0.735-0.428,1.181V94h-1.055V87.725z M250.475,87.725h1.002
			v1.084c0.082-0.211,0.283-0.468,0.604-0.771s0.689-0.454,1.107-0.454c0.02,0,0.053,0.002,0.1,0.006s0.127,0.012,0.24,0.023v1.113
			c-0.063-0.012-0.12-0.02-0.173-0.023s-0.11-0.006-0.173-0.006c-0.531,0-0.939,0.171-1.225,0.513s-0.428,0.735-0.428,1.181V94
			h-1.055V87.725z M244.828,87.725v4.166c0,0.32,0.051,0.582,0.152,0.785c0.188,0.375,0.537,0.563,1.049,0.563
			c0.734,0,1.234-0.328,1.5-0.984c0.145-0.352,0.217-0.834,0.217-1.447v-3.082h1.055V94h-0.996l0.012-0.926
			c-0.137,0.238-0.307,0.439-0.51,0.604c-0.402,0.328-0.891,0.492-1.465,0.492c-0.895,0-1.504-0.299-1.828-0.896
			c-0.176-0.32-0.264-0.748-0.264-1.283v-4.266H244.828z M241.919,88.059c0.443,0.344,0.71,0.936,0.8,1.775h-1.025
			c-0.063-0.387-0.205-0.708-0.428-0.964s-0.58-0.384-1.072-0.384c-0.672,0-1.152,0.328-1.441,0.984
			c-0.188,0.426-0.281,0.951-0.281,1.576c0,0.629,0.133,1.158,0.398,1.588s0.684,0.645,1.254,0.645c0.438,0,0.784-0.134,1.04-0.401
			s0.433-0.634,0.53-1.099h1.025c-0.117,0.832-0.41,1.44-0.879,1.825s-1.068,0.577-1.799,0.577c-0.82,0-1.475-0.3-1.963-0.899
			s-0.732-1.349-0.732-2.247c0-1.102,0.268-1.959,0.803-2.572s1.217-0.92,2.045-0.92C240.9,87.543,241.476,87.715,241.919,88.059z"
			/>
		<path clip-path="url(#SVGID_6_)" d="M319.697,106.031c0.031,0.352,0.119,0.621,0.264,0.809c0.266,0.34,0.727,0.51,1.383,0.51
			c0.391,0,0.734-0.085,1.031-0.255s0.445-0.433,0.445-0.788c0-0.27-0.119-0.475-0.357-0.615c-0.152-0.086-0.453-0.186-0.902-0.299
			l-0.838-0.211c-0.535-0.133-0.93-0.281-1.184-0.445c-0.453-0.285-0.68-0.68-0.68-1.184c0-0.594,0.214-1.074,0.642-1.441
			s1.003-0.551,1.726-0.551c0.945,0,1.627,0.277,2.045,0.832c0.262,0.352,0.389,0.73,0.381,1.137h-0.996
			c-0.02-0.238-0.104-0.455-0.252-0.65c-0.242-0.277-0.662-0.416-1.26-0.416c-0.398,0-0.7,0.076-0.905,0.229
			s-0.308,0.354-0.308,0.604c0,0.273,0.135,0.492,0.404,0.656c0.156,0.098,0.387,0.184,0.691,0.258l0.697,0.17
			c0.758,0.184,1.266,0.361,1.523,0.533c0.41,0.27,0.615,0.693,0.615,1.271c0,0.559-0.212,1.041-0.636,1.447
			s-1.069,0.609-1.937,0.609c-0.934,0-1.595-0.212-1.983-0.636s-0.597-0.948-0.624-1.573H319.697z M312.398,101.725h1.002v0.891
			c0.297-0.367,0.611-0.631,0.943-0.791s0.701-0.24,1.107-0.24c0.891,0,1.492,0.311,1.805,0.932c0.172,0.34,0.258,0.826,0.258,1.459
			V108h-1.072v-3.955c0-0.383-0.057-0.691-0.17-0.926c-0.188-0.391-0.527-0.586-1.02-0.586c-0.25,0-0.455,0.025-0.615,0.076
			c-0.289,0.086-0.543,0.258-0.762,0.516c-0.176,0.207-0.29,0.421-0.343,0.642s-0.079,0.536-0.079,0.946V108h-1.055V101.725z
			 M310.309,102.352c0.559,0.539,0.838,1.332,0.838,2.379c0,1.012-0.246,1.848-0.738,2.508s-1.256,0.99-2.291,0.99
			c-0.863,0-1.549-0.292-2.057-0.876s-0.762-1.368-0.762-2.353c0-1.055,0.268-1.895,0.803-2.52s1.254-0.938,2.156-0.938
			C309.066,101.543,309.75,101.813,310.309,102.352z M309.655,106.526c0.26-0.529,0.39-1.118,0.39-1.767
			c0-0.586-0.094-1.063-0.281-1.43c-0.297-0.578-0.809-0.867-1.535-0.867c-0.645,0-1.113,0.246-1.406,0.738
			s-0.439,1.086-0.439,1.781c0,0.668,0.146,1.225,0.439,1.67s0.758,0.668,1.395,0.668
			C308.916,107.32,309.396,107.056,309.655,106.526z M303.07,99.393h1.072v1.195h-1.072V99.393z M303.07,101.754h1.072V108h-1.072
			V101.754z M299.953,99.973h1.066v1.752h1.002v0.861h-1.002v4.096c0,0.219,0.074,0.365,0.223,0.439
			c0.082,0.043,0.219,0.064,0.41,0.064c0.051,0,0.105-0.001,0.164-0.003s0.127-0.007,0.205-0.015V108
			c-0.121,0.035-0.247,0.061-0.378,0.076s-0.272,0.023-0.425,0.023c-0.492,0-0.826-0.126-1.002-0.378s-0.264-0.579-0.264-0.981
			v-4.154h-0.85v-0.861h0.85V99.973z M296.434,104.197c0.242-0.031,0.404-0.133,0.486-0.305c0.047-0.094,0.07-0.229,0.07-0.404
			c0-0.359-0.128-0.62-0.384-0.782s-0.622-0.243-1.099-0.243c-0.551,0-0.941,0.148-1.172,0.445
			c-0.129,0.164-0.213,0.408-0.252,0.732H293.1c0.02-0.773,0.271-1.312,0.753-1.614s1.042-0.454,1.679-0.454
			c0.738,0,1.338,0.141,1.799,0.422c0.457,0.281,0.686,0.719,0.686,1.313v3.615c0,0.109,0.022,0.197,0.067,0.264s0.14,0.1,0.284,0.1
			c0.047,0,0.1-0.003,0.158-0.009s0.121-0.015,0.188-0.026v0.779c-0.164,0.047-0.289,0.076-0.375,0.088s-0.203,0.018-0.352,0.018
			c-0.363,0-0.627-0.129-0.791-0.387c-0.086-0.137-0.146-0.33-0.182-0.58c-0.215,0.281-0.523,0.525-0.926,0.732
			s-0.846,0.311-1.33,0.311c-0.582,0-1.058-0.177-1.427-0.53s-0.554-0.796-0.554-1.327c0-0.582,0.182-1.033,0.545-1.354
			s0.84-0.518,1.43-0.592L296.434,104.197z M294.213,107.051c0.223,0.176,0.486,0.264,0.791,0.264c0.371,0,0.73-0.086,1.078-0.258
			c0.586-0.285,0.879-0.752,0.879-1.4v-0.85c-0.129,0.082-0.295,0.15-0.498,0.205s-0.402,0.094-0.598,0.117l-0.639,0.082
			c-0.383,0.051-0.67,0.131-0.861,0.24c-0.324,0.184-0.486,0.477-0.486,0.879C293.879,106.635,293.99,106.875,294.213,107.051z
			 M289.953,99.973h1.066v1.752h1.002v0.861h-1.002v4.096c0,0.219,0.074,0.365,0.223,0.439c0.082,0.043,0.219,0.064,0.41,0.064
			c0.051,0,0.105-0.001,0.164-0.003s0.127-0.007,0.205-0.015V108c-0.121,0.035-0.247,0.061-0.378,0.076s-0.272,0.023-0.425,0.023
			c-0.492,0-0.826-0.126-1.002-0.378s-0.264-0.579-0.264-0.981v-4.154h-0.85v-0.861h0.85V99.973z M283.07,101.725h1.002v0.891
			c0.297-0.367,0.611-0.631,0.943-0.791s0.701-0.24,1.107-0.24c0.891,0,1.492,0.311,1.805,0.932c0.172,0.34,0.258,0.826,0.258,1.459
			V108h-1.072v-3.955c0-0.383-0.057-0.691-0.17-0.926c-0.188-0.391-0.527-0.586-1.02-0.586c-0.25,0-0.455,0.025-0.615,0.076
			c-0.289,0.086-0.543,0.258-0.762,0.516c-0.176,0.207-0.29,0.421-0.343,0.642s-0.079,0.536-0.079,0.946V108h-1.055V101.725z
			 M280.693,104.361c-0.043-0.457-0.143-0.822-0.299-1.096c-0.289-0.508-0.771-0.762-1.447-0.762c-0.484,0-0.891,0.175-1.219,0.524
			s-0.502,0.794-0.521,1.333H280.693z M280.307,101.897c0.418,0.209,0.736,0.479,0.955,0.812c0.211,0.316,0.352,0.686,0.422,1.107
			c0.063,0.289,0.094,0.75,0.094,1.383h-4.6c0.02,0.637,0.17,1.147,0.451,1.532s0.717,0.577,1.307,0.577
			c0.551,0,0.99-0.182,1.318-0.545c0.188-0.211,0.32-0.455,0.398-0.732h1.037c-0.027,0.23-0.118,0.487-0.272,0.771
			s-0.327,0.515-0.519,0.694c-0.32,0.313-0.717,0.523-1.189,0.633c-0.254,0.063-0.541,0.094-0.861,0.094
			c-0.781,0-1.443-0.284-1.986-0.853s-0.814-1.364-0.814-2.388c0-1.008,0.273-1.826,0.82-2.455s1.262-0.943,2.145-0.943
			C279.457,101.584,279.889,101.688,280.307,101.897z M266.414,101.725h1.043v0.891c0.25-0.309,0.477-0.533,0.68-0.674
			c0.348-0.238,0.742-0.357,1.184-0.357c0.5,0,0.902,0.123,1.207,0.369c0.172,0.141,0.328,0.348,0.469,0.621
			c0.234-0.336,0.51-0.585,0.826-0.747s0.672-0.243,1.066-0.243c0.844,0,1.418,0.305,1.723,0.914
			c0.164,0.328,0.246,0.77,0.246,1.324V108h-1.096v-4.359c0-0.418-0.104-0.705-0.313-0.861s-0.464-0.234-0.765-0.234
			c-0.414,0-0.771,0.139-1.069,0.416s-0.448,0.74-0.448,1.389V108h-1.072v-4.096c0-0.426-0.051-0.736-0.152-0.932
			c-0.16-0.293-0.459-0.439-0.896-0.439c-0.398,0-0.761,0.154-1.087,0.463s-0.489,0.867-0.489,1.676V108h-1.055V101.725z
			 M264.037,104.361c-0.043-0.457-0.143-0.822-0.299-1.096c-0.289-0.508-0.771-0.762-1.447-0.762c-0.484,0-0.891,0.175-1.219,0.524
			s-0.502,0.794-0.521,1.333H264.037z M263.65,101.897c0.418,0.209,0.736,0.479,0.955,0.812c0.211,0.316,0.352,0.686,0.422,1.107
			c0.063,0.289,0.094,0.75,0.094,1.383h-4.6c0.02,0.637,0.17,1.147,0.451,1.532s0.717,0.577,1.307,0.577
			c0.551,0,0.99-0.182,1.318-0.545c0.188-0.211,0.32-0.455,0.398-0.732h1.037c-0.027,0.23-0.118,0.487-0.272,0.771
			s-0.327,0.515-0.519,0.694c-0.32,0.313-0.717,0.523-1.189,0.633c-0.254,0.063-0.541,0.094-0.861,0.094
			c-0.781,0-1.443-0.284-1.986-0.853s-0.814-1.364-0.814-2.388c0-1.008,0.273-1.826,0.82-2.455s1.262-0.943,2.145-0.943
			C262.801,101.584,263.232,101.688,263.65,101.897z M257.115,99.393h1.055V108h-1.055V99.393z M250.332,101.754h1.025v0.832
			c0.211-0.285,0.441-0.506,0.691-0.662c0.355-0.234,0.773-0.352,1.254-0.352c0.711,0,1.314,0.272,1.811,0.817
			s0.744,1.323,0.744,2.335c0,1.367-0.357,2.344-1.072,2.93c-0.453,0.371-0.98,0.557-1.582,0.557c-0.473,0-0.869-0.104-1.189-0.311
			c-0.188-0.117-0.396-0.318-0.627-0.604v3.205h-1.055V101.754z M254.29,106.673c0.326-0.412,0.489-1.028,0.489-1.849
			c0-0.5-0.072-0.93-0.217-1.289c-0.273-0.691-0.773-1.037-1.5-1.037c-0.73,0-1.23,0.365-1.5,1.096
			c-0.145,0.391-0.217,0.887-0.217,1.488c0,0.484,0.072,0.896,0.217,1.236c0.273,0.648,0.773,0.973,1.5,0.973
			C253.555,107.291,253.964,107.085,254.29,106.673z M240.43,101.725h1.043v0.891c0.25-0.309,0.477-0.533,0.68-0.674
			c0.348-0.238,0.742-0.357,1.184-0.357c0.5,0,0.902,0.123,1.207,0.369c0.172,0.141,0.328,0.348,0.469,0.621
			c0.234-0.336,0.51-0.585,0.826-0.747s0.672-0.243,1.066-0.243c0.844,0,1.418,0.305,1.723,0.914
			c0.164,0.328,0.246,0.77,0.246,1.324V108h-1.096v-4.359c0-0.418-0.104-0.705-0.313-0.861s-0.464-0.234-0.765-0.234
			c-0.414,0-0.771,0.139-1.069,0.416s-0.448,0.74-0.448,1.389V108h-1.072v-4.096c0-0.426-0.051-0.736-0.152-0.932
			c-0.16-0.293-0.459-0.439-0.896-0.439c-0.398,0-0.761,0.154-1.087,0.463s-0.489,0.867-0.489,1.676V108h-1.055V101.725z
			 M237.773,99.393h1.072v1.195h-1.072V99.393z M237.773,101.754h1.072V108h-1.072V101.754z"/>
		<path clip-path="url(#SVGID_6_)" d="M315.742,6.725h1.002v0.891c0.297-0.367,0.611-0.631,0.943-0.791s0.701-0.24,1.107-0.24
			c0.891,0,1.492,0.311,1.805,0.932c0.172,0.34,0.258,0.826,0.258,1.459V13h-1.072V9.045c0-0.383-0.057-0.691-0.17-0.926
			c-0.188-0.391-0.527-0.586-1.02-0.586c-0.25,0-0.455,0.025-0.615,0.076c-0.289,0.086-0.543,0.258-0.762,0.516
			c-0.176,0.207-0.29,0.421-0.343,0.642s-0.079,0.536-0.079,0.946V13h-1.055V6.725z M313.652,7.352
			c0.559,0.539,0.838,1.332,0.838,2.379c0,1.012-0.246,1.848-0.738,2.508s-1.256,0.99-2.291,0.99c-0.863,0-1.549-0.292-2.057-0.876
			s-0.762-1.368-0.762-2.353c0-1.055,0.268-1.895,0.803-2.52s1.254-0.938,2.156-0.938C312.41,6.543,313.094,6.813,313.652,7.352z
			 M312.999,11.526c0.26-0.529,0.39-1.118,0.39-1.767c0-0.586-0.094-1.063-0.281-1.43c-0.297-0.578-0.809-0.867-1.535-0.867
			c-0.645,0-1.113,0.246-1.406,0.738s-0.439,1.086-0.439,1.781c0,0.668,0.146,1.225,0.439,1.67s0.758,0.668,1.395,0.668
			C312.26,12.32,312.739,12.056,312.999,11.526z M306.414,4.393h1.072v1.195h-1.072V4.393z M306.414,6.754h1.072V13h-1.072V6.754z
			 M303.297,4.973h1.066v1.752h1.002v0.861h-1.002v4.096c0,0.219,0.074,0.365,0.223,0.439c0.082,0.043,0.219,0.064,0.41,0.064
			c0.051,0,0.105-0.001,0.164-0.003s0.127-0.007,0.205-0.015V13c-0.121,0.035-0.247,0.061-0.378,0.076s-0.272,0.023-0.425,0.023
			c-0.492,0-0.826-0.126-1.002-0.378s-0.264-0.579-0.264-0.981V7.586h-0.85V6.725h0.85V4.973z M299.777,9.197
			c0.242-0.031,0.404-0.133,0.486-0.305c0.047-0.094,0.07-0.229,0.07-0.404c0-0.359-0.128-0.62-0.384-0.782
			s-0.622-0.243-1.099-0.243c-0.551,0-0.941,0.148-1.172,0.445c-0.129,0.164-0.213,0.408-0.252,0.732h-0.984
			c0.02-0.773,0.271-1.312,0.753-1.614s1.042-0.454,1.679-0.454c0.738,0,1.338,0.141,1.799,0.422
			c0.457,0.281,0.686,0.719,0.686,1.313v3.615c0,0.109,0.022,0.197,0.067,0.264s0.14,0.1,0.284,0.1c0.047,0,0.1-0.003,0.158-0.009
			s0.121-0.015,0.188-0.026v0.779c-0.164,0.047-0.289,0.076-0.375,0.088s-0.203,0.018-0.352,0.018c-0.363,0-0.627-0.129-0.791-0.387
			c-0.086-0.137-0.146-0.33-0.182-0.58c-0.215,0.281-0.523,0.525-0.926,0.732s-0.846,0.311-1.33,0.311
			c-0.582,0-1.058-0.177-1.427-0.53s-0.554-0.796-0.554-1.327c0-0.582,0.182-1.033,0.545-1.354s0.84-0.518,1.43-0.592L299.777,9.197
			z M297.557,12.051c0.223,0.176,0.486,0.264,0.791,0.264c0.371,0,0.73-0.086,1.078-0.258c0.586-0.285,0.879-0.752,0.879-1.4v-0.85
			c-0.129,0.082-0.295,0.15-0.498,0.205s-0.402,0.094-0.598,0.117l-0.639,0.082c-0.383,0.051-0.67,0.131-0.861,0.24
			c-0.324,0.184-0.486,0.477-0.486,0.879C297.223,11.635,297.334,11.875,297.557,12.051z M292.459,6.725h1.002v1.084
			c0.082-0.211,0.283-0.468,0.604-0.771s0.689-0.454,1.107-0.454c0.02,0,0.053,0.002,0.1,0.006s0.127,0.012,0.24,0.023v1.113
			c-0.063-0.012-0.12-0.02-0.173-0.023s-0.11-0.006-0.173-0.006c-0.531,0-0.939,0.171-1.225,0.513s-0.428,0.735-0.428,1.181V13
			h-1.055V6.725z M289.391,8.107c-0.32-0.375-0.729-0.563-1.225-0.563c-0.742,0-1.25,0.348-1.523,1.043
			c-0.145,0.371-0.217,0.857-0.217,1.459c0,0.707,0.144,1.245,0.431,1.614s0.673,0.554,1.157,0.554c0.758,0,1.291-0.342,1.6-1.025
			c0.172-0.387,0.258-0.838,0.258-1.354C289.871,9.059,289.711,8.482,289.391,8.107z M289.262,6.977
			c0.199,0.137,0.402,0.336,0.609,0.598V6.783h0.973v5.707c0,0.797-0.117,1.426-0.352,1.887c-0.438,0.852-1.264,1.277-2.479,1.277
			c-0.676,0-1.244-0.151-1.705-0.454s-0.719-0.776-0.773-1.421h1.072c0.051,0.281,0.152,0.498,0.305,0.65
			c0.238,0.234,0.613,0.352,1.125,0.352c0.809,0,1.338-0.285,1.588-0.855c0.148-0.336,0.217-0.936,0.205-1.799
			c-0.211,0.32-0.465,0.559-0.762,0.715s-0.689,0.234-1.178,0.234c-0.68,0-1.274-0.241-1.784-0.724s-0.765-1.28-0.765-2.394
			c0-1.051,0.257-1.871,0.771-2.461s1.134-0.885,1.86-0.885C288.465,6.613,288.895,6.734,289.262,6.977z M283.381,9.361
			c-0.043-0.457-0.143-0.822-0.299-1.096c-0.289-0.508-0.771-0.762-1.447-0.762c-0.484,0-0.891,0.175-1.219,0.524
			s-0.502,0.794-0.521,1.333H283.381z M282.994,6.897c0.418,0.209,0.736,0.479,0.955,0.812c0.211,0.316,0.352,0.686,0.422,1.107
			c0.063,0.289,0.094,0.75,0.094,1.383h-4.6c0.02,0.637,0.17,1.147,0.451,1.532s0.717,0.577,1.307,0.577
			c0.551,0,0.99-0.182,1.318-0.545c0.188-0.211,0.32-0.455,0.398-0.732h1.037c-0.027,0.23-0.118,0.487-0.272,0.771
			s-0.327,0.515-0.519,0.694c-0.32,0.313-0.717,0.523-1.189,0.633c-0.254,0.063-0.541,0.094-0.861,0.094
			c-0.781,0-1.443-0.284-1.986-0.853s-0.814-1.364-0.814-2.388c0-1.008,0.273-1.826,0.82-2.455s1.262-0.943,2.145-0.943
			C282.145,6.584,282.576,6.688,282.994,6.897z M275.969,4.973h1.066v1.752h1.002v0.861h-1.002v4.096
			c0,0.219,0.074,0.365,0.223,0.439c0.082,0.043,0.219,0.064,0.41,0.064c0.051,0,0.105-0.001,0.164-0.003s0.127-0.007,0.205-0.015
			V13c-0.121,0.035-0.247,0.061-0.378,0.076s-0.272,0.023-0.425,0.023c-0.492,0-0.826-0.126-1.002-0.378s-0.264-0.579-0.264-0.981
			V7.586h-0.85V6.725h0.85V4.973z M269.086,6.725h1.002v0.891c0.297-0.367,0.611-0.631,0.943-0.791s0.701-0.24,1.107-0.24
			c0.891,0,1.492,0.311,1.805,0.932c0.172,0.34,0.258,0.826,0.258,1.459V13h-1.072V9.045c0-0.383-0.057-0.691-0.17-0.926
			c-0.188-0.391-0.527-0.586-1.02-0.586c-0.25,0-0.455,0.025-0.615,0.076c-0.289,0.086-0.543,0.258-0.762,0.516
			c-0.176,0.207-0.29,0.421-0.343,0.642s-0.079,0.536-0.079,0.946V13h-1.055V6.725z M266.162,4.393h1.178V13h-1.178V4.393z
			 M255.332,10.223c0.027,0.488,0.143,0.885,0.346,1.189c0.387,0.57,1.068,0.855,2.045,0.855c0.438,0,0.836-0.063,1.195-0.188
			c0.695-0.242,1.043-0.676,1.043-1.301c0-0.469-0.146-0.803-0.439-1.002c-0.297-0.195-0.762-0.365-1.395-0.51l-1.166-0.264
			c-0.762-0.172-1.301-0.361-1.617-0.568c-0.547-0.359-0.82-0.896-0.82-1.611c0-0.773,0.268-1.408,0.803-1.904
			s1.293-0.744,2.273-0.744c0.902,0,1.669,0.218,2.3,0.653s0.946,1.132,0.946,2.089h-1.096c-0.059-0.461-0.184-0.814-0.375-1.061
			c-0.355-0.449-0.959-0.674-1.811-0.674c-0.688,0-1.182,0.145-1.482,0.434s-0.451,0.625-0.451,1.008
			c0,0.422,0.176,0.73,0.527,0.926c0.23,0.125,0.752,0.281,1.564,0.469l1.207,0.275c0.582,0.133,1.031,0.314,1.348,0.545
			c0.547,0.402,0.82,0.986,0.82,1.752c0,0.953-0.347,1.635-1.04,2.045s-1.499,0.615-2.417,0.615c-1.07,0-1.908-0.273-2.514-0.82
			c-0.605-0.543-0.902-1.279-0.891-2.209H255.332z M247.332,10.223c0.027,0.488,0.143,0.885,0.346,1.189
			c0.387,0.57,1.068,0.855,2.045,0.855c0.438,0,0.836-0.063,1.195-0.188c0.695-0.242,1.043-0.676,1.043-1.301
			c0-0.469-0.146-0.803-0.439-1.002c-0.297-0.195-0.762-0.365-1.395-0.51l-1.166-0.264c-0.762-0.172-1.301-0.361-1.617-0.568
			c-0.547-0.359-0.82-0.896-0.82-1.611c0-0.773,0.268-1.408,0.803-1.904s1.293-0.744,2.273-0.744c0.902,0,1.669,0.218,2.3,0.653
			s0.946,1.132,0.946,2.089h-1.096c-0.059-0.461-0.184-0.814-0.375-1.061c-0.355-0.449-0.959-0.674-1.811-0.674
			c-0.688,0-1.182,0.145-1.482,0.434s-0.451,0.625-0.451,1.008c0,0.422,0.176,0.73,0.527,0.926c0.23,0.125,0.752,0.281,1.564,0.469
			l1.207,0.275c0.582,0.133,1.031,0.314,1.348,0.545c0.547,0.402,0.82,0.986,0.82,1.752c0,0.953-0.347,1.635-1.04,2.045
			s-1.499,0.615-2.417,0.615c-1.07,0-1.908-0.273-2.514-0.82c-0.605-0.543-0.902-1.279-0.891-2.209H247.332z M244.078,5.02
			c0.602,0.574,0.936,1.227,1.002,1.957h-1.137c-0.129-0.555-0.386-0.994-0.771-1.318s-0.925-0.486-1.62-0.486
			c-0.848,0-1.532,0.298-2.054,0.894s-0.782,1.509-0.782,2.739c0,1.008,0.235,1.825,0.706,2.452s1.173,0.94,2.106,0.94
			c0.859,0,1.514-0.33,1.963-0.99c0.238-0.348,0.416-0.805,0.533-1.371h1.137c-0.102,0.906-0.438,1.666-1.008,2.279
			c-0.684,0.738-1.605,1.107-2.766,1.107c-1,0-1.84-0.303-2.52-0.908c-0.895-0.801-1.342-2.037-1.342-3.709
			c0-1.27,0.336-2.311,1.008-3.123c0.727-0.883,1.729-1.324,3.006-1.324C242.631,4.158,243.477,4.445,244.078,5.02z"/>
		<path clip-path="url(#SVGID_6_)" d="M295.994,25.723h1.225V27h-1.225V25.723z M293.115,18.393h1.055V27h-1.055V18.393z
			 M289.777,23.197c0.242-0.031,0.404-0.133,0.486-0.305c0.047-0.094,0.07-0.229,0.07-0.404c0-0.359-0.128-0.62-0.384-0.782
			s-0.622-0.243-1.099-0.243c-0.551,0-0.941,0.148-1.172,0.445c-0.129,0.164-0.213,0.408-0.252,0.732h-0.984
			c0.02-0.773,0.271-1.312,0.753-1.614s1.042-0.454,1.679-0.454c0.738,0,1.338,0.141,1.799,0.422
			c0.457,0.281,0.686,0.719,0.686,1.313v3.615c0,0.109,0.022,0.197,0.067,0.264s0.14,0.1,0.284,0.1c0.047,0,0.1-0.003,0.158-0.009
			s0.121-0.015,0.188-0.026v0.779c-0.164,0.047-0.289,0.076-0.375,0.088s-0.203,0.018-0.352,0.018c-0.363,0-0.627-0.129-0.791-0.387
			c-0.086-0.137-0.146-0.33-0.182-0.58c-0.215,0.281-0.523,0.525-0.926,0.732s-0.846,0.311-1.33,0.311
			c-0.582,0-1.058-0.177-1.427-0.53s-0.554-0.796-0.554-1.327c0-0.582,0.182-1.033,0.545-1.354s0.84-0.518,1.43-0.592
			L289.777,23.197z M287.557,26.051c0.223,0.176,0.486,0.264,0.791,0.264c0.371,0,0.73-0.086,1.078-0.258
			c0.586-0.285,0.879-0.752,0.879-1.4v-0.85c-0.129,0.082-0.295,0.15-0.498,0.205s-0.402,0.094-0.598,0.117l-0.639,0.082
			c-0.383,0.051-0.67,0.131-0.861,0.24c-0.324,0.184-0.486,0.477-0.486,0.879C287.223,25.635,287.334,25.875,287.557,26.051z
			 M279.969,18.973h1.066v1.752h1.002v0.861h-1.002v4.096c0,0.219,0.074,0.365,0.223,0.439c0.082,0.043,0.219,0.064,0.41,0.064
			c0.051,0,0.105-0.001,0.164-0.003s0.127-0.007,0.205-0.015V27c-0.121,0.035-0.247,0.061-0.378,0.076s-0.272,0.023-0.425,0.023
			c-0.492,0-0.826-0.126-1.002-0.378s-0.264-0.579-0.264-0.981v-4.154h-0.85v-0.861h0.85V18.973z M277.381,23.361
			c-0.043-0.457-0.143-0.822-0.299-1.096c-0.289-0.508-0.771-0.762-1.447-0.762c-0.484,0-0.891,0.175-1.219,0.524
			s-0.502,0.794-0.521,1.333H277.381z M276.994,20.897c0.418,0.209,0.736,0.479,0.955,0.812c0.211,0.316,0.352,0.686,0.422,1.107
			c0.063,0.289,0.094,0.75,0.094,1.383h-4.6c0.02,0.637,0.17,1.147,0.451,1.532s0.717,0.577,1.307,0.577
			c0.551,0,0.99-0.182,1.318-0.545c0.188-0.211,0.32-0.455,0.398-0.732h1.037c-0.027,0.23-0.118,0.487-0.272,0.771
			s-0.327,0.515-0.519,0.694c-0.32,0.313-0.717,0.523-1.189,0.633c-0.254,0.063-0.541,0.094-0.861,0.094
			c-0.781,0-1.443-0.284-1.986-0.853s-0.814-1.364-0.814-2.388c0-1.008,0.273-1.826,0.82-2.455s1.262-0.943,2.145-0.943
			C276.145,20.584,276.576,20.688,276.994,20.897z M265.803,20.725h1.002v1.084c0.082-0.211,0.283-0.468,0.604-0.771
			s0.689-0.454,1.107-0.454c0.02,0,0.053,0.002,0.1,0.006s0.127,0.012,0.24,0.023v1.113c-0.063-0.012-0.12-0.02-0.173-0.023
			s-0.11-0.006-0.173-0.006c-0.531,0-0.939,0.171-1.225,0.513s-0.428,0.735-0.428,1.181V27h-1.055V20.725z M263.396,23.361
			c-0.043-0.457-0.143-0.822-0.299-1.096c-0.289-0.508-0.771-0.762-1.447-0.762c-0.484,0-0.891,0.175-1.219,0.524
			s-0.502,0.794-0.521,1.333H263.396z M263.01,20.897c0.418,0.209,0.736,0.479,0.955,0.812c0.211,0.316,0.352,0.686,0.422,1.107
			c0.063,0.289,0.094,0.75,0.094,1.383h-4.6c0.02,0.637,0.17,1.147,0.451,1.532s0.717,0.577,1.307,0.577
			c0.551,0,0.99-0.182,1.318-0.545c0.188-0.211,0.32-0.455,0.398-0.732h1.037c-0.027,0.23-0.118,0.487-0.272,0.771
			s-0.327,0.515-0.519,0.694c-0.32,0.313-0.717,0.523-1.189,0.633c-0.254,0.063-0.541,0.094-0.861,0.094
			c-0.781,0-1.443-0.284-1.986-0.853s-0.814-1.364-0.814-2.388c0-1.008,0.273-1.826,0.82-2.455s1.262-0.943,2.145-0.943
			C262.16,20.584,262.592,20.688,263.01,20.897z M255.984,18.973h1.066v1.752h1.002v0.861h-1.002v4.096
			c0,0.219,0.074,0.365,0.223,0.439c0.082,0.043,0.219,0.064,0.41,0.064c0.051,0,0.105-0.001,0.164-0.003s0.127-0.007,0.205-0.015
			V27c-0.121,0.035-0.247,0.061-0.378,0.076s-0.272,0.023-0.425,0.023c-0.492,0-0.826-0.126-1.002-0.378s-0.264-0.579-0.264-0.981
			v-4.154h-0.85v-0.861h0.85V18.973z M252.656,18.973h1.066v1.752h1.002v0.861h-1.002v4.096c0,0.219,0.074,0.365,0.223,0.439
			c0.082,0.043,0.219,0.064,0.41,0.064c0.051,0,0.105-0.001,0.164-0.003s0.127-0.007,0.205-0.015V27
			c-0.121,0.035-0.247,0.061-0.378,0.076s-0.272,0.023-0.425,0.023c-0.492,0-0.826-0.126-1.002-0.378s-0.264-0.579-0.264-0.981
			v-4.154h-0.85v-0.861h0.85V18.973z M246.828,20.725v4.166c0,0.32,0.051,0.582,0.152,0.785c0.188,0.375,0.537,0.563,1.049,0.563
			c0.734,0,1.234-0.328,1.5-0.984c0.145-0.352,0.217-0.834,0.217-1.447v-3.082h1.055V27h-0.996l0.012-0.926
			c-0.137,0.238-0.307,0.439-0.51,0.604c-0.402,0.328-0.891,0.492-1.465,0.492c-0.895,0-1.504-0.299-1.828-0.896
			c-0.176-0.32-0.264-0.748-0.264-1.283v-4.266H246.828z M238.676,24.223c0.027,0.488,0.143,0.885,0.346,1.189
			c0.387,0.57,1.068,0.855,2.045,0.855c0.438,0,0.836-0.063,1.195-0.188c0.695-0.242,1.043-0.676,1.043-1.301
			c0-0.469-0.146-0.803-0.439-1.002c-0.297-0.195-0.762-0.365-1.395-0.51l-1.166-0.264c-0.762-0.172-1.301-0.361-1.617-0.568
			c-0.547-0.359-0.82-0.896-0.82-1.611c0-0.773,0.268-1.408,0.803-1.904s1.293-0.744,2.273-0.744c0.902,0,1.669,0.218,2.3,0.653
			s0.946,1.132,0.946,2.089h-1.096c-0.059-0.461-0.184-0.814-0.375-1.061c-0.355-0.449-0.959-0.674-1.811-0.674
			c-0.688,0-1.182,0.145-1.482,0.434s-0.451,0.625-0.451,1.008c0,0.422,0.176,0.73,0.527,0.926c0.23,0.125,0.752,0.281,1.564,0.469
			l1.207,0.275c0.582,0.133,1.031,0.314,1.348,0.545c0.547,0.402,0.82,0.986,0.82,1.752c0,0.953-0.347,1.635-1.04,2.045
			s-1.499,0.615-2.417,0.615c-1.07,0-1.908-0.273-2.514-0.82c-0.605-0.543-0.902-1.279-0.891-2.209H238.676z"/>
		
			<ellipse clip-path="url(#SVGID_6_)" fill="none" stroke="#000000" stroke-miterlimit="10" cx="228.5" cy="136.5" rx="146" ry="20"/>
		<path clip-path="url(#SVGID_6_)" d="M364.338,137.031c0.031,0.352,0.119,0.621,0.264,0.809c0.266,0.34,0.727,0.51,1.383,0.51
			c0.391,0,0.734-0.085,1.031-0.255s0.445-0.433,0.445-0.788c0-0.27-0.119-0.475-0.357-0.615c-0.152-0.086-0.453-0.186-0.902-0.299
			l-0.838-0.211c-0.535-0.133-0.93-0.281-1.184-0.445c-0.453-0.285-0.68-0.68-0.68-1.184c0-0.594,0.214-1.074,0.642-1.441
			s1.003-0.551,1.726-0.551c0.945,0,1.627,0.277,2.045,0.832c0.262,0.352,0.389,0.73,0.381,1.137h-0.996
			c-0.02-0.238-0.104-0.455-0.252-0.65c-0.242-0.277-0.662-0.416-1.26-0.416c-0.398,0-0.7,0.076-0.905,0.229
			s-0.308,0.354-0.308,0.604c0,0.273,0.135,0.492,0.404,0.656c0.156,0.098,0.387,0.184,0.691,0.258l0.697,0.17
			c0.758,0.184,1.266,0.361,1.523,0.533c0.41,0.27,0.615,0.693,0.615,1.271c0,0.559-0.212,1.041-0.636,1.447
			s-1.069,0.609-1.937,0.609c-0.934,0-1.595-0.212-1.983-0.636s-0.597-0.948-0.624-1.573H364.338z M360.594,130.973h1.066v1.752
			h1.002v0.861h-1.002v4.096c0,0.219,0.074,0.365,0.223,0.439c0.082,0.043,0.219,0.064,0.41,0.064c0.051,0,0.105-0.001,0.164-0.003
			s0.127-0.007,0.205-0.015V139c-0.121,0.035-0.247,0.061-0.378,0.076s-0.272,0.023-0.425,0.023c-0.492,0-0.826-0.126-1.002-0.378
			s-0.264-0.579-0.264-0.981v-4.154h-0.85v-0.861h0.85V130.973z M353.711,132.725h1.002v0.891c0.297-0.367,0.611-0.631,0.943-0.791
			s0.701-0.24,1.107-0.24c0.891,0,1.492,0.311,1.805,0.932c0.172,0.34,0.258,0.826,0.258,1.459V139h-1.072v-3.955
			c0-0.383-0.057-0.691-0.17-0.926c-0.188-0.391-0.527-0.586-1.02-0.586c-0.25,0-0.455,0.025-0.615,0.076
			c-0.289,0.086-0.543,0.258-0.762,0.516c-0.176,0.207-0.29,0.421-0.343,0.642s-0.079,0.536-0.079,0.946V139h-1.055V132.725z
			 M351.334,135.361c-0.043-0.457-0.143-0.822-0.299-1.096c-0.289-0.508-0.771-0.762-1.447-0.762c-0.484,0-0.891,0.175-1.219,0.524
			s-0.502,0.794-0.521,1.333H351.334z M350.947,132.897c0.418,0.209,0.736,0.479,0.955,0.812c0.211,0.316,0.352,0.686,0.422,1.107
			c0.063,0.289,0.094,0.75,0.094,1.383h-4.6c0.02,0.637,0.17,1.147,0.451,1.532s0.717,0.577,1.307,0.577
			c0.551,0,0.99-0.182,1.318-0.545c0.188-0.211,0.32-0.455,0.398-0.732h1.037c-0.027,0.23-0.118,0.487-0.272,0.771
			s-0.327,0.515-0.519,0.694c-0.32,0.313-0.717,0.523-1.189,0.633c-0.254,0.063-0.541,0.094-0.861,0.094
			c-0.781,0-1.443-0.284-1.986-0.853s-0.814-1.364-0.814-2.388c0-1.008,0.273-1.826,0.82-2.455s1.262-0.943,2.145-0.943
			C350.098,132.584,350.529,132.688,350.947,132.897z M340.367,132.725h1.002v0.891c0.297-0.367,0.611-0.631,0.943-0.791
			s0.701-0.24,1.107-0.24c0.891,0,1.492,0.311,1.805,0.932c0.172,0.34,0.258,0.826,0.258,1.459V139h-1.072v-3.955
			c0-0.383-0.057-0.691-0.17-0.926c-0.188-0.391-0.527-0.586-1.02-0.586c-0.25,0-0.455,0.025-0.615,0.076
			c-0.289,0.086-0.543,0.258-0.762,0.516c-0.176,0.207-0.29,0.421-0.343,0.642s-0.079,0.536-0.079,0.946V139h-1.055V132.725z
			 M338.277,133.352c0.559,0.539,0.838,1.332,0.838,2.379c0,1.012-0.246,1.848-0.738,2.508s-1.256,0.99-2.291,0.99
			c-0.863,0-1.549-0.292-2.057-0.876s-0.762-1.368-0.762-2.353c0-1.055,0.268-1.895,0.803-2.52s1.254-0.938,2.156-0.938
			C337.035,132.543,337.719,132.813,338.277,133.352z M337.624,137.526c0.26-0.529,0.39-1.118,0.39-1.767
			c0-0.586-0.094-1.063-0.281-1.43c-0.297-0.578-0.809-0.867-1.535-0.867c-0.645,0-1.113,0.246-1.406,0.738
			s-0.439,1.086-0.439,1.781c0,0.668,0.146,1.225,0.439,1.67s0.758,0.668,1.395,0.668
			C336.885,138.32,337.364,138.056,337.624,137.526z M326.941,132.754h1.025v0.832c0.211-0.285,0.441-0.506,0.691-0.662
			c0.355-0.234,0.773-0.352,1.254-0.352c0.711,0,1.314,0.272,1.811,0.817s0.744,1.323,0.744,2.335c0,1.367-0.357,2.344-1.072,2.93
			c-0.453,0.371-0.98,0.557-1.582,0.557c-0.473,0-0.869-0.104-1.189-0.311c-0.188-0.117-0.396-0.318-0.627-0.604v3.205h-1.055
			V132.754z M330.899,137.673c0.326-0.412,0.489-1.028,0.489-1.849c0-0.5-0.072-0.93-0.217-1.289
			c-0.273-0.691-0.773-1.037-1.5-1.037c-0.73,0-1.23,0.365-1.5,1.096c-0.145,0.391-0.217,0.887-0.217,1.488
			c0,0.484,0.072,0.896,0.217,1.236c0.273,0.648,0.773,0.973,1.5,0.973C330.164,138.291,330.573,138.085,330.899,137.673z
			 M317.039,132.725h1.043v0.891c0.25-0.309,0.477-0.533,0.68-0.674c0.348-0.238,0.742-0.357,1.184-0.357
			c0.5,0,0.902,0.123,1.207,0.369c0.172,0.141,0.328,0.348,0.469,0.621c0.234-0.336,0.51-0.585,0.826-0.747s0.672-0.243,1.066-0.243
			c0.844,0,1.418,0.305,1.723,0.914c0.164,0.328,0.246,0.77,0.246,1.324V139h-1.096v-4.359c0-0.418-0.104-0.705-0.313-0.861
			s-0.464-0.234-0.765-0.234c-0.414,0-0.771,0.139-1.069,0.416s-0.448,0.74-0.448,1.389V139h-1.072v-4.096
			c0-0.426-0.051-0.736-0.152-0.932c-0.16-0.293-0.459-0.439-0.896-0.439c-0.398,0-0.761,0.154-1.087,0.463
			s-0.489,0.867-0.489,1.676V139h-1.055V132.725z M314.949,133.352c0.559,0.539,0.838,1.332,0.838,2.379
			c0,1.012-0.246,1.848-0.738,2.508s-1.256,0.99-2.291,0.99c-0.863,0-1.549-0.292-2.057-0.876s-0.762-1.368-0.762-2.353
			c0-1.055,0.268-1.895,0.803-2.52s1.254-0.938,2.156-0.938C313.707,132.543,314.391,132.813,314.949,133.352z M314.296,137.526
			c0.26-0.529,0.39-1.118,0.39-1.767c0-0.586-0.094-1.063-0.281-1.43c-0.297-0.578-0.809-0.867-1.535-0.867
			c-0.645,0-1.113,0.246-1.406,0.738s-0.439,1.086-0.439,1.781c0,0.668,0.146,1.225,0.439,1.67s0.758,0.668,1.395,0.668
			C313.557,138.32,314.036,138.056,314.296,137.526z M308.016,131.02c0.602,0.574,0.936,1.227,1.002,1.957h-1.137
			c-0.129-0.555-0.386-0.994-0.771-1.318s-0.925-0.486-1.62-0.486c-0.848,0-1.532,0.298-2.054,0.894s-0.782,1.509-0.782,2.739
			c0,1.008,0.235,1.825,0.706,2.452s1.173,0.94,2.106,0.94c0.859,0,1.514-0.33,1.963-0.99c0.238-0.348,0.416-0.805,0.533-1.371
			h1.137c-0.102,0.906-0.438,1.666-1.008,2.279c-0.684,0.738-1.605,1.107-2.766,1.107c-1,0-1.84-0.303-2.52-0.908
			c-0.895-0.801-1.342-2.037-1.342-3.709c0-1.27,0.336-2.311,1.008-3.123c0.727-0.883,1.729-1.324,3.006-1.324
			C306.568,130.158,307.414,130.445,308.016,131.02z M295.651,137.588c0.283-0.453,0.425-1.051,0.425-1.793
			c0-0.66-0.142-1.207-0.425-1.641s-0.7-0.65-1.251-0.65c-0.48,0-0.901,0.178-1.263,0.533s-0.542,0.941-0.542,1.758
			c0,0.59,0.074,1.068,0.223,1.436c0.277,0.691,0.795,1.037,1.553,1.037C294.941,138.268,295.368,138.041,295.651,137.588z
			 M291.629,130.363h1.025v3.123c0.23-0.301,0.506-0.53,0.826-0.688s0.668-0.237,1.043-0.237c0.781,0,1.415,0.269,1.901,0.806
			s0.729,1.329,0.729,2.376c0,0.992-0.24,1.816-0.721,2.473s-1.146,0.984-1.998,0.984c-0.477,0-0.879-0.115-1.207-0.346
			c-0.195-0.137-0.404-0.355-0.627-0.656V139h-0.973V130.363z M289.334,135.361c-0.043-0.457-0.143-0.822-0.299-1.096
			c-0.289-0.508-0.771-0.762-1.447-0.762c-0.484,0-0.891,0.175-1.219,0.524s-0.502,0.794-0.521,1.333H289.334z M288.947,132.897
			c0.418,0.209,0.736,0.479,0.955,0.812c0.211,0.316,0.352,0.686,0.422,1.107c0.063,0.289,0.094,0.75,0.094,1.383h-4.6
			c0.02,0.637,0.17,1.147,0.451,1.532s0.717,0.577,1.307,0.577c0.551,0,0.99-0.182,1.318-0.545c0.188-0.211,0.32-0.455,0.398-0.732
			h1.037c-0.027,0.23-0.118,0.487-0.272,0.771s-0.327,0.515-0.519,0.694c-0.32,0.313-0.717,0.523-1.189,0.633
			c-0.254,0.063-0.541,0.094-0.861,0.094c-0.781,0-1.443-0.284-1.986-0.853s-0.814-1.364-0.814-2.388
			c0-1.008,0.273-1.826,0.82-2.455s1.262-0.943,2.145-0.943C288.098,132.584,288.529,132.688,288.947,132.897z M274.436,130.393
			l1.623,7.002l1.945-7.002h1.266l1.945,7.002l1.623-7.002h1.277L281.854,139h-1.225l-1.986-7.137L276.645,139h-1.225l-2.25-8.607
			H274.436z M268.021,135.361c-0.043-0.457-0.143-0.822-0.299-1.096c-0.289-0.508-0.771-0.762-1.447-0.762
			c-0.484,0-0.891,0.175-1.219,0.524s-0.502,0.794-0.521,1.333H268.021z M267.635,132.897c0.418,0.209,0.736,0.479,0.955,0.812
			c0.211,0.316,0.352,0.686,0.422,1.107c0.063,0.289,0.094,0.75,0.094,1.383h-4.6c0.02,0.637,0.17,1.147,0.451,1.532
			s0.717,0.577,1.307,0.577c0.551,0,0.99-0.182,1.318-0.545c0.188-0.211,0.32-0.455,0.398-0.732h1.037
			c-0.027,0.23-0.118,0.487-0.272,0.771s-0.327,0.515-0.519,0.694c-0.32,0.313-0.717,0.523-1.189,0.633
			c-0.254,0.063-0.541,0.094-0.861,0.094c-0.781,0-1.443-0.284-1.986-0.853s-0.814-1.364-0.814-2.388
			c0-1.008,0.273-1.826,0.82-2.455s1.262-0.943,2.145-0.943C266.785,132.584,267.217,132.688,267.635,132.897z M257.258,138.168
			l3.721-4.5h-3.445v-0.943h4.863v0.861l-3.697,4.471h3.809V139h-5.25V138.168z M255.07,130.393h1.072v1.195h-1.072V130.393z
			 M255.07,132.754h1.072V139h-1.072V132.754z M252.443,130.393h1.055V139h-1.055V130.393z M249.758,130.393h1.072v1.195h-1.072
			V130.393z M249.758,132.754h1.072V139h-1.072V132.754z M246.641,130.973h1.066v1.752h1.002v0.861h-1.002v4.096
			c0,0.219,0.074,0.365,0.223,0.439c0.082,0.043,0.219,0.064,0.41,0.064c0.051,0,0.105-0.001,0.164-0.003s0.127-0.007,0.205-0.015
			V139c-0.121,0.035-0.247,0.061-0.378,0.076s-0.272,0.023-0.425,0.023c-0.492,0-0.826-0.126-1.002-0.378s-0.264-0.579-0.264-0.981
			v-4.154h-0.85v-0.861h0.85V130.973z M239.18,130.393v5.32c0,0.625,0.117,1.145,0.352,1.559c0.348,0.625,0.934,0.938,1.758,0.938
			c0.988,0,1.66-0.338,2.016-1.014c0.191-0.367,0.287-0.861,0.287-1.482v-5.32h1.184v4.834c0,1.059-0.143,1.873-0.428,2.443
			c-0.523,1.039-1.512,1.559-2.965,1.559s-2.439-0.52-2.959-1.559c-0.285-0.57-0.428-1.385-0.428-2.443v-4.834H239.18z"/>
	</g>
</g>
<g>
	<defs>
		<rect id="SVGID_7_" width="387" height="188"/>
	</defs>
	<clipPath id="SVGID_8_">
		<use xlink:href="#SVGID_7_"  overflow="visible"/>
	</clipPath>
</g>
<g>
	<defs>
		<rect id="SVGID_9_" width="387" height="188"/>
	</defs>
	<clipPath id="SVGID_10_">
		<use xlink:href="#SVGID_9_"  overflow="visible"/>
	</clipPath>
	<g clip-path="url(#SVGID_10_)">
		<defs>
			<rect id="SVGID_11_" width="387" height="188"/>
		</defs>
		<clipPath id="SVGID_12_">
			<use xlink:href="#SVGID_11_"  overflow="visible"/>
		</clipPath>
	</g>
</g>
<g>
	<defs>
		<rect id="SVGID_13_" width="387" height="188"/>
	</defs>
	<clipPath id="SVGID_14_">
		<use xlink:href="#SVGID_13_"  overflow="visible"/>
	</clipPath>
</g>
</svg>
